<?xml version="1.0" encoding="UTF-8"?>
<svg id="Layer_1" xmlns="http://www.w3.org/2000/svg" viewBox="0 0 252.62 252.5">
  <defs>
    <style>
      .cls-1 {
        fill: #b7d67f;
      }

      .cls-2 {
        fill: #b0ce79;
      }

      .cls-3 {
        fill: #bdde81;
      }

      .cls-4 {
        fill: #040503;
      }

      .cls-5 {
        fill: #080809;
      }

      .cls-6 {
        fill: #19120a;
      }

      .cls-7 {
        fill: #2f2113;
      }

      .cls-8 {
        fill: #020201;
      }

      .cls-9 {
        fill: #010201;
      }

      .cls-10 {
        fill: #daeea8;
      }

      .cls-11 {
        fill: #a6c374;
      }

      .cls-12 {
        fill: #bbdc80;
      }

      .cls-13 {
        fill: #c0874f;
      }

      .cls-14 {
        fill: #dae1ec;
      }

      .cls-15 {
        fill: #020301;
      }

      .cls-16 {
        fill: #d8eca7;
      }

      .cls-17 {
        fill: #030402;
      }

      .cls-18 {
        fill: #bddf82;
      }

      .cls-19 {
        fill: #e0f4ad;
      }

      .cls-20 {
        fill: #171819;
      }

      .cls-21 {
        fill: #1c140c;
      }

      .cls-22 {
        fill: #9a5625;
      }

      .cls-23 {
        fill: #c4e786;
      }

      .cls-24 {
        fill: #251a0f;
      }

      .cls-25 {
        fill: #24190f;
      }

      .cls-26 {
        fill: #cee891;
      }

      .cls-27 {
        fill: #9bb470;
      }

      .cls-28 {
        fill: #62472c;
      }

      .cls-29 {
        fill: #a3cc5d;
      }
    </style>
  </defs>
  <path d="M126.08,252.5C56.29,252.41,0,195.85,0,125.84,0,56.35,57.2-.14,127.4,0c69.23.13,125.3,56.83,125.22,126.63-.08,69.41-56.93,125.96-126.53,125.87Z"/>
  <path class="cls-14" d="M125.29,7.75c65.32-.26,118.81,52.63,119.02,117.7.22,65.54-52.39,118.64-117.75,118.84-65.27.2-118.43-52.74-118.56-118.09C7.87,61.02,60.36,8,125.29,7.75Z"/>
  <path d="M121.57,234.45c-16.09.16-31.92-1.26-46.9-7.87-21.43-9.45-36.69-25.51-47.1-45.92C4.32,135.1,10.99,73.89,57.76,36.94c18.22-14.39,38.67-23.3,61.84-25.23,20.4-1.7,39.68,2.91,57.02,13.61,22.83,14.09,41.34,32.6,53.17,57.05,5.28,10.92,7.47,22.66,8.04,34.78.54,11.54.76,23.04-2.68,34.18-9.3,30.15-26.79,54.21-53.94,70.71-13.19,8.01-27.83,11.59-43.15,12.38-5.48.28-10.99.05-16.48.05Z"/>
  <path class="cls-29" d="M100.83,174.66c19.46,7.1,39.55,8.46,59.27,2.93,29.47-8.25,48.1-28.93,54.77-58.11,6.32-27.65-2.74-52.04-23.78-71.52-2.58-2.39-5.47-4.31-8.83-5.54-3.57-1.31-3.86-5.09-4.85-7.91-.59-1.69,1.47-.68,2.26-.13,4.73,3.27,9.26,6.81,13.51,10.68,14.41,13.11,26.8,28.08,33.49,46.37,7.99,21.84,6.56,44.12.19,66.6-12.31,43.42-56.71,70.32-92.79,70.69-12.62.13-25.21.7-37.69-1.88-28.18-5.83-47.88-22.59-62.48-46.8-11.69-19.4-14.5-40.32-12.16-62.09,5.17-48.12,31.83-79.36,76.78-95.89,12.04-4.43,24.31-5.07,37.09-3.35-1.49.59-2.99,1.16-4.47,1.79-3.96,1.68-7.45,4.05-10.44,7.15-.75.78-1.35,1.89-2.76,1.5-7.59-2.1-14.65.25-21.5,2.96-28.04,11.07-46.61,41.3-44.02,71.36.3,3.47.76,6.93,1.15,10.4-2.02-1.22-3.66-.6-5.5.71-2.5,1.78-3.98,4.38-5.99,6.55-2.15.88-4.46.33-6.67.77-7.29,1.45-9.56,7.97-4.82,13.77,1.52,1.86,3.92,2.7,5.14,4.82-.67,1.94-1.66,3.81-1.41,5.97-5.69,5.78-4.89,11.49,2.24,15.97.63.4,1.32.73,1.47,1.57-.38,3.34,1.76,5.65,3.46,8.04,7.57,10.62,17.76,16.73,30.98,16.58,9.15-.1,17.27-3.45,23.98-9.85,1.44-1.37,2.64-3,4.34-4.1Z"/>
  <path class="cls-23" d="M59.48,110.28c-2.86-16.01-.21-31.19,7.88-45.15,10.95-18.9,27.72-29.53,49.5-33.06-1.12,2.6-2.15,4.93-3.14,7.29-.3.73-.77,1.15-1.48,1.54-24.23,13.14-30.34,41.62-13.12,61.72,7.73,9.02,16.82,16.37,27.83,21.1,17.39,7.46,34.49,4.51,47.51-8.18,11.45-11.15,15-30.51,8.42-46.71-.93-2.3-1.27-4.41-.79-6.87.96-4.93.73-9.91-.38-15.34,2.49,1.25,4.03,3.01,5.61,4.61,19.8,20.12,28.81,44.02,20.35,71.49-7.97,25.9-25.22,43.86-52.82,49.94-17.01,3.75-33.74,2.78-50.15-3.12-.57-.2-1.07-.59-1.6-.89,2.55-2.25,3.72-5.24,4.52-8.42,6.99-27.69-13.64-51.99-39.07-52.38-3.15-.05-6.57-.26-9.08,2.44Z"/>
  <path class="cls-26" d="M100.83,174.66c-2.88,5.62-7.91,8.93-13.33,11.41-20.8,9.49-41.23-1.05-50.15-19.18-.45-.92-1.85-2.25.49-2.78.63-.71,1.52-.76,2.37-.95,6.54-1.48,8.66-7.93,4.18-12.99-2.04-2.31-4.6-3.79-7.86-3.58-.85.05-1.74.31-2.47-.41-1.29-2.36-.7-4.14,1.64-5.39.75-.65,1.62-.44,2.49-.38,5.03.36,8.26-1.26,9.91-4.95,1.66-3.7.42-8.42-2.92-11.57-1.03-.97-2.81-1.28-2.92-3.13,1.14-4.93,5.35-7.01,9.11-9.26,2.07-1.24.79,2.18,2.22,2.38,4.56,19.55,14.14,36.12,29.29,49.38,5.4,4.72,11.58,8.22,17.94,11.41Z"/>
  <path class="cls-13" d="M139.04,80.19c-6.93-2.42-10.93-7.94-14.53-13.85-.77-1.26.24-2.39.73-3.5,2.36-5.37,5.1-10.59,6.32-16.38.26-1.23,1.29-3.02-.44-3.63-1.21-.43-1.94,1.28-2.58,2.32-3.13,5.1-4.13,10.91-5.48,16.7-7.67-10.36-1.78-27.8,11.96-34.77-1.33,4.16-3.33,7.91-2.71,12.42,5.48-3.43,5.17-11.4,11.15-14.12-.64,4.54-2.28,8.62-1.59,13.29,2.77-2.91,4.6-6.46,5.69-10.25.89-3.11,2.54-3.54,5.22-2.92,2.22.51,3.22,1.19,1.97,3.78-3.49,7.21-5.74,14.89-7.75,22.63-.18.7-.27,1.43-.5,2.73,2.66-2.24,3.72-4.9,5.03-7.3,2.63-4.82,4.93-9.81,7.55-14.64.52-.97.28-3.79,2.7-2.23,1.67,1.08,4.3,1.88,2.78,5.1-2.73,5.77-4.54,11.89-6.04,18.08-.81,3.34-1.94,6.63-2.05,11.27,6.04-9.02,9.01-18.18,11.78-27.68,2.57,1.95,2.98,3.86,1.8,6.62-2.59,6.07-4.32,12.44-5.58,18.92-.71,1.78.08,3.75-.54,4.89.08-.34.52-1.18,1.35-1.78,2.81-6.42,5.25-12.98,7.16-20.09,4.41,9.01,1.33,23.2-6.36,31.15-3.91,4.04-8.6,6.3-14.18,6.78-2.31.2-3.08-.39-1.67-2.65.85-1.36,1.44-2.9,1.96-4.43.35-1.02.8-2.51-.41-3.03-1.52-.64-2.12.95-2.6,2.01-.66,1.47-1.33,3.03-1.48,4.6-.3,3.1-1.8,3.41-4.24,2.31-1.54-.7-3.49-.61-4.46-2.38,1.27-.62,2.22-1.51,2.38-3.12-.44,1.38-1.16,2.45-2.36,3.14Z"/>
  <path class="cls-19" d="M59.48,110.28c.05-1.96,1.11-2.88,3-3.1,15.13-1.77,27.82,3.26,37.49,14.73,10.41,12.35,12.58,26.68,7.5,42.01-.69,2.08-1.05,4.88-4.37,4.73-13.56-5.55-23.46-15.37-31.35-27.35-6.22-9.45-10.88-19.62-12.28-31.02Z"/>
  <path class="cls-14" d="M177.23,76.42c4.45,14.2-2.61,31.3-15.29,38.14-13.9,7.49-27.36,6.31-40.49-1.68-6.97-4.25-13.4-9.36-17.96-16.18-9.08-13.57-8.63-29.18,2.43-41.34,1.56-1.72,3.18-3.38,4.78-5.06.41.08.81.16,1.22.24,0,5.41-.23,10.84.07,16.24.25,4.47.91,8.94,1.76,13.34,1.28,6.65,6.08,11.08,10.81,15.29,5.84,5.2,12.7,8.37,20.73,8.24,5.67-.09,10.43-2.34,14.16-6.6,5.9-6.75,11.71-13.57,17.78-20.62Z"/>
  <path class="cls-22" d="M119.06,73.12c7.28,10.32,16.35,17.14,28.85,18.64,2,.24,3.96.27,5.95-.06.89-.15,2.23-.85,2.67.35.46,1.27-.88,1.97-1.82,2.42-4.15,2.03-8.52,2.59-13.08,1.74-8.4-1.55-14.57-6.69-20.38-12.48-3.69-3.68-4.27-6.08-2.19-10.61Z"/>
  <path class="cls-24" d="M165.29,65.9c-.18,1.9-.84,3.55-2.72,5.27.47-3.23.69-5.9,1.91-8.38.33,1.02-.34,2.3.81,3.11Z"/>
  <path class="cls-9" d="M42.26,120.74c3.35,1.69,5.92,4.09,7.08,7.79,2.3,7.36-3.06,13.82-10.71,12.85-.99-.13-1.95-.41-2.93-.61-3.33-1.77-6.23-3.96-7.72-7.63-2.39-5.91-.23-10.16,5.86-11.89,2.81-.8,5.56-1.11,8.41-.51Z"/>
  <path class="cls-15" d="M92.07,210.48c-7.1.06-12.14-5.08-11.54-11.13.46-4.7,4.16-7.3,8.72-6.04.97.27,1.87.44,2.91.38,5.63-.3,9.28,2.07,9.97,6.33.69,4.31-2.69,8.74-7.72,10.04-.96.25-1.96.36-2.33.42Z"/>
  <path class="cls-8" d="M34.06,146.16c6.03-1.19,10.7,1,12.9,6.15,2.94,6.87-1.85,13.13-9.11,11.79-3.1-1.4-5.75-3.28-7.26-6.49-2.38-5.06-1.31-8.66,3.48-11.45Z"/>
  <path class="cls-15" d="M197.54,183.15c-4.93.01-8.74-3.63-8.74-8.35,0-4.86,4.74-9.4,9.84-9.42,3.9-.01,8.42,4.62,8.34,8.55-.1,5.09-4.31,9.21-9.43,9.22Z"/>
  <path class="cls-17" d="M127.06,206.5c.02,4.23-2.95,7.9-6.91,8.53-3.95.63-7.95-2-9.15-6.03-.14-.47-.24-.97-.29-1.46-.39-3.73,2.05-6.43,5.86-6.67,10-.63,9.77,1.14,10.5,5.62Z"/>
  <path class="cls-17" d="M164.02,199.18c3.16-.08,5.6,2.58,5.63,6.12.03,4.02-3.24,7.54-7.12,7.66-3.21.09-5.43-2.03-5.47-5.25-.05-3.67,3.85-8.45,6.96-8.53Z"/>
  <path class="cls-4" d="M185.43,194.19c-.1,3.21-3.14,5.91-6.57,5.83-3.67-.09-6.36-2.89-6.24-6.51.11-3.35,2.7-5.66,6.21-5.53,3.81.14,6.7,2.86,6.6,6.22Z"/>
  <path class="cls-17" d="M112.85,196.55c-3.91.01-7.1-3.02-7.01-6.68.07-2.69,1.48-4.17,4.17-4.2,4.57-.07,8.42,2.56,8.44,5.64.02,2.92-2.45,5.23-5.6,5.24Z"/>
  <path class="cls-6" d="M130.03,71.75c-.17-4.44.76-7.48,2.26-10.36.38-.74.87-1.72,1.93-1.34,1.03.38.86,1.37.64,2.24-.78,3.15-2.28,5.93-4.82,9.46Z"/>
  <path class="cls-21" d="M138.56,44.17c1.5.26,2.2,1.12,1.98,2.38-.33,1.85-1.56,3.28-3.36,3.48-1.4.16-.99-1.43-.97-2.3.05-1.69.56-3.16,2.35-3.56Z"/>
  <path class="cls-7" d="M160.04,77.02c-.06,1.43-.81,2.3-2.27,2.44-1.4.13-2.09-.69-2.14-2-.06-1.47.68-2.4,2.18-2.49,1.33-.07,2.04.73,2.23,2.05Z"/>
  <path class="cls-28" d="M139.04,80.19l2.68-5.82,1.01.55c-1.07,1.84.79,5.29-3.7,5.25,0,0,.02.02.02.02Z"/>
  <path class="cls-25" d="M145.81,63.58c-.16.96-.81,1.74-1.83,1.9-.65.1-1.04-.61-.9-1.29.21-.99.6-1.94,1.8-1.99.78-.03.97.58.93,1.39Z"/>
  <path class="cls-5" d="M101.97,75.68c1.31.1,2.1.81,2.53,1.94,1.02,2.66,2.03,5.33,3.01,8.01.25.68.62,1.46.02,2.1-.62.66-1.4.22-2.07.02-3.57-1.05-6.64-5.34-6.33-8.76.16-1.81.96-3.04,2.84-3.3Z"/>
  <path class="cls-20" d="M115.01,99.24c-2.87-.32-5.66-2.81-5.29-4.77.26-1.37,1.18-1.77,2.46-1.57,1.83.28,5.36,4.14,4.98,5.52-.32,1.15-1.3.88-2.15.82Z"/>
  <path class="cls-10" d="M37.83,126.65c.72.07,1.52-.04,2.15.23,2.8,1.23,4.5,4.7,3.03,6.63-2.07,2.71-4.48,1.77-6.72-.04-1.22-2.67-.8-4.96,1.55-6.82Z"/>
  <path class="cls-1" d="M37.83,126.65c-.92,2.18-1.52,4.44-1.55,6.82-2.01-1.11-3.21-2.91-2.72-5.08.47-2.09,2.56-1.81,4.26-1.74Z"/>
  <path class="cls-18" d="M91.17,205.37c-1.83-.04-3.46-.6-4.62-2.06-.96-1.21-1.59-2.62-.97-4.16.59-1.5,2.07-1.12,3.26-1.2.99-.06,2.02-.13,2.98.06,2.09.43,4.85.14,5.18,3.19.24,2.15-2.85,4.21-5.82,4.17Z"/>
  <path class="cls-16" d="M42.73,156.34c-.14,1.57-.86,2.7-2.73,2.75-2.46.07-5.57-3.22-5.68-6.03-.07-1.7.71-2.52,2.43-2.52,2.76,0,6.01,3.05,5.98,5.79Z"/>
  <path class="cls-12" d="M197.67,178.17c-2.18-.15-3.72-1.14-3.76-3.37-.05-2.6,1.6-4.33,4.04-4.58,2.25-.24,3.88,1.32,3.94,3.59.07,2.65-1.78,3.92-4.22,4.37Z"/>
  <path class="cls-3" d="M122.47,206.8c-.36,1.86-1.27,3.27-3.39,3.27-2.06,0-3.44-1.25-3.36-3.21.1-2.6,2.59-2.35,4.28-2.63,1.64-.27,2.44.9,2.47,2.57Z"/>
  <path class="cls-27" d="M162.83,208.06c-.72-.02-1.22-.4-1.13-1.11.19-1.35.59-2.86,1.91-3.33,1.21-.43,1.16.92,1.21,1.71.08,1.41-.69,2.29-1.99,2.74Z"/>
  <path class="cls-11" d="M179.41,195.26c-1.14-.03-2.02-.46-2.07-1.68-.05-1.25.66-2.35,1.87-2.4,1.04-.04,1.65,1.05,1.83,2.08.22,1.24-.48,1.84-1.64,2Z"/>
  <path class="cls-2" d="M113.65,191.1c-.11.85-.7.95-1.35.8-.89-.21-1.68-.66-1.81-1.65-.09-.71.35-1.25,1.11-1.07,1,.24,1.81.81,2.05,1.92Z"/>
</svg>