<?xml version="1.0" encoding="UTF-8"?>
<svg id="Layer_1" xmlns="http://www.w3.org/2000/svg" viewBox="0 0 949.22 252.5">
  <defs>
    <style>
      .cls-1 {
        fill: #b7d67f;
      }

      .cls-2 {
        fill: #b0ce79;
      }

      .cls-3 {
        fill: #bdde81;
      }

      .cls-4 {
        fill: #040503;
      }

      .cls-5 {
        fill: #080809;
      }

      .cls-6 {
        fill: #19120a;
      }

      .cls-7 {
        fill: #2f2113;
      }

      .cls-8 {
        fill: #020201;
      }

      .cls-9 {
        fill: #010201;
      }

      .cls-10 {
        fill: #daeea8;
      }

      .cls-11 {
        fill: #a6c374;
      }

      .cls-12 {
        fill: #bbdc80;
      }

      .cls-13 {
        fill: #c0874f;
      }

      .cls-14 {
        fill: #dae1ec;
      }

      .cls-15 {
        fill: #020301;
      }

      .cls-16 {
        fill: #d8eca7;
      }

      .cls-17 {
        fill: #030402;
      }

      .cls-18 {
        fill: #bddf82;
      }

      .cls-19 {
        fill: #e0f4ad;
      }

      .cls-20 {
        fill: #a3cb5c;
      }

      .cls-21 {
        fill: #171819;
      }

      .cls-22 {
        fill: #1c140c;
      }

      .cls-23 {
        fill: #9a5625;
      }

      .cls-24 {
        fill: #c4e786;
      }

      .cls-25 {
        fill: #251a0f;
      }

      .cls-26 {
        fill: #24190f;
      }

      .cls-27 {
        fill: #cee891;
      }

      .cls-28 {
        fill: #9bb470;
      }

      .cls-29 {
        fill: #62472c;
      }

      .cls-30 {
        fill: #a3cc5d;
      }
    </style>
  </defs>
  <g>
    <path d="M126.08,252.5C56.29,252.41,0,195.85,0,125.84,0,56.35,57.2-.14,127.4,0c69.23.13,125.3,56.83,125.22,126.63-.08,69.41-56.93,125.96-126.53,125.87Z"/>
    <path class="cls-14" d="M125.29,7.75c65.32-.26,118.81,52.63,119.02,117.7.22,65.54-52.39,118.64-117.75,118.84-65.27.2-118.43-52.74-118.56-118.09C7.87,61.02,60.36,8,125.29,7.75Z"/>
    <path d="M121.57,234.45c-16.09.16-31.92-1.26-46.9-7.87-21.43-9.45-36.69-25.51-47.1-45.92C4.32,135.1,10.99,73.89,57.76,36.94c18.22-14.39,38.67-23.3,61.84-25.23,20.4-1.7,39.68,2.91,57.02,13.61,22.83,14.09,41.34,32.6,53.17,57.05,5.28,10.92,7.47,22.66,8.04,34.78.54,11.54.76,23.04-2.68,34.18-9.3,30.15-26.79,54.21-53.94,70.71-13.19,8.01-27.83,11.59-43.15,12.38-5.48.28-10.99.05-16.48.05Z"/>
    <path class="cls-30" d="M100.83,174.66c19.46,7.1,39.55,8.46,59.27,2.93,29.47-8.25,48.1-28.93,54.77-58.11,6.32-27.65-2.74-52.04-23.78-71.52-2.58-2.39-5.47-4.31-8.83-5.54-3.57-1.31-3.86-5.09-4.85-7.91-.59-1.69,1.47-.68,2.26-.13,4.73,3.27,9.26,6.81,13.51,10.68,14.41,13.11,26.8,28.08,33.49,46.37,7.99,21.84,6.56,44.12.19,66.6-12.31,43.42-56.71,70.32-92.79,70.69-12.62.13-25.21.7-37.69-1.88-28.18-5.83-47.88-22.59-62.48-46.8-11.69-19.4-14.5-40.32-12.16-62.09,5.17-48.12,31.83-79.36,76.78-95.89,12.04-4.43,24.31-5.07,37.09-3.35-1.49.59-2.99,1.16-4.47,1.79-3.96,1.68-7.45,4.05-10.44,7.15-.75.78-1.35,1.89-2.76,1.5-7.59-2.1-14.65.25-21.5,2.96-28.04,11.07-46.61,41.3-44.02,71.36.3,3.47.76,6.93,1.15,10.4-2.02-1.22-3.66-.6-5.5.71-2.5,1.78-3.98,4.38-5.99,6.55-2.15.88-4.46.33-6.67.77-7.29,1.45-9.56,7.97-4.82,13.77,1.52,1.86,3.92,2.7,5.14,4.82-.67,1.94-1.66,3.81-1.41,5.97-5.69,5.78-4.89,11.49,2.24,15.97.63.4,1.32.73,1.47,1.57-.38,3.34,1.76,5.65,3.46,8.04,7.57,10.62,17.76,16.73,30.98,16.58,9.15-.1,17.27-3.45,23.98-9.85,1.44-1.37,2.64-3,4.34-4.1Z"/>
    <path class="cls-24" d="M59.48,110.28c-2.86-16.01-.21-31.19,7.88-45.15,10.95-18.9,27.72-29.53,49.5-33.06-1.12,2.6-2.15,4.93-3.14,7.29-.3.73-.77,1.15-1.48,1.54-24.23,13.14-30.34,41.62-13.12,61.72,7.73,9.02,16.82,16.37,27.83,21.1,17.39,7.46,34.49,4.51,47.51-8.18,11.45-11.15,15-30.51,8.42-46.71-.93-2.3-1.27-4.41-.79-6.87.96-4.93.73-9.91-.38-15.34,2.49,1.25,4.03,3.01,5.61,4.61,19.8,20.12,28.81,44.02,20.35,71.49-7.97,25.9-25.22,43.86-52.82,49.94-17.01,3.75-33.74,2.78-50.15-3.12-.57-.2-1.07-.59-1.6-.89,2.55-2.25,3.72-5.24,4.52-8.42,6.99-27.69-13.64-51.99-39.07-52.38-3.15-.05-6.57-.26-9.08,2.44Z"/>
    <path class="cls-27" d="M100.83,174.66c-2.88,5.62-7.91,8.93-13.33,11.41-20.8,9.49-41.23-1.05-50.15-19.18-.45-.92-1.85-2.25.49-2.78.63-.71,1.52-.76,2.37-.95,6.54-1.48,8.66-7.93,4.18-12.99-2.04-2.31-4.6-3.79-7.86-3.58-.85.05-1.74.31-2.47-.41-1.29-2.36-.7-4.14,1.64-5.39.75-.65,1.62-.44,2.49-.38,5.03.36,8.26-1.26,9.91-4.95,1.66-3.7.42-8.42-2.92-11.57-1.03-.97-2.81-1.28-2.92-3.13,1.14-4.93,5.35-7.01,9.11-9.26,2.07-1.24.79,2.18,2.22,2.38,4.56,19.55,14.14,36.12,29.29,49.38,5.4,4.72,11.58,8.22,17.94,11.41Z"/>
    <path class="cls-13" d="M139.04,80.19c-6.93-2.42-10.93-7.94-14.53-13.85-.77-1.26.24-2.39.73-3.5,2.36-5.37,5.1-10.59,6.32-16.38.26-1.23,1.29-3.02-.44-3.63-1.21-.43-1.94,1.28-2.58,2.32-3.13,5.09-4.13,10.91-5.48,16.7-7.67-10.36-1.78-27.8,11.96-34.77-1.33,4.16-3.33,7.91-2.71,12.42,5.48-3.43,5.17-11.4,11.15-14.12-.64,4.54-2.28,8.62-1.59,13.29,2.77-2.91,4.6-6.46,5.69-10.25.89-3.11,2.54-3.54,5.22-2.92,2.22.51,3.22,1.19,1.97,3.78-3.49,7.21-5.74,14.89-7.75,22.63-.18.7-.27,1.43-.5,2.73,2.66-2.24,3.72-4.9,5.03-7.3,2.63-4.82,4.93-9.81,7.55-14.64.52-.97.28-3.79,2.7-2.23,1.67,1.08,4.3,1.88,2.78,5.1-2.73,5.77-4.54,11.89-6.04,18.08-.81,3.34-1.94,6.63-2.05,11.27,6.04-9.02,9.01-18.18,11.78-27.68,2.57,1.95,2.98,3.86,1.8,6.62-2.59,6.07-4.32,12.44-5.58,18.92-.71,1.78.08,3.75-.54,4.89.08-.34.52-1.18,1.35-1.78,2.81-6.42,5.25-12.98,7.16-20.09,4.41,9.01,1.33,23.2-6.36,31.15-3.91,4.04-8.6,6.3-14.18,6.78-2.31.2-3.08-.39-1.67-2.65.85-1.36,1.44-2.9,1.96-4.43.35-1.02.8-2.51-.41-3.03-1.52-.64-2.12.95-2.6,2.01-.66,1.47-1.33,3.03-1.48,4.6-.3,3.1-1.8,3.41-4.24,2.31-1.54-.7-3.49-.61-4.46-2.38,1.27-.62,2.22-1.51,2.38-3.12-.44,1.38-1.16,2.45-2.36,3.14Z"/>
    <path class="cls-19" d="M59.48,110.28c.05-1.96,1.11-2.88,3-3.1,15.13-1.77,27.82,3.26,37.49,14.73,10.41,12.35,12.58,26.68,7.5,42.01-.69,2.08-1.05,4.88-4.37,4.73-13.56-5.55-23.46-15.37-31.35-27.35-6.22-9.45-10.88-19.62-12.28-31.02Z"/>
    <path class="cls-14" d="M177.23,76.42c4.45,14.2-2.61,31.3-15.29,38.14-13.9,7.49-27.36,6.31-40.49-1.68-6.97-4.25-13.4-9.36-17.96-16.18-9.08-13.57-8.63-29.18,2.43-41.34,1.56-1.72,3.18-3.38,4.78-5.06.41.08.81.16,1.22.24,0,5.41-.23,10.84.07,16.24.25,4.47.91,8.94,1.76,13.34,1.28,6.65,6.08,11.08,10.81,15.29,5.84,5.2,12.7,8.37,20.73,8.24,5.67-.09,10.43-2.34,14.16-6.6,5.9-6.75,11.71-13.57,17.78-20.62Z"/>
    <path class="cls-23" d="M119.06,73.12c7.28,10.32,16.35,17.14,28.85,18.64,2,.24,3.96.27,5.95-.06.89-.15,2.23-.85,2.67.35.46,1.27-.88,1.97-1.82,2.42-4.15,2.03-8.52,2.59-13.08,1.74-8.4-1.55-14.57-6.69-20.38-12.48-3.69-3.68-4.27-6.08-2.19-10.61Z"/>
    <path class="cls-25" d="M165.29,65.9c-.18,1.9-.84,3.55-2.72,5.27.47-3.23.69-5.9,1.91-8.38.33,1.02-.34,2.3.81,3.11Z"/>
    <path class="cls-9" d="M42.26,120.74c3.35,1.69,5.92,4.09,7.08,7.79,2.3,7.36-3.06,13.82-10.71,12.85-.99-.13-1.95-.41-2.93-.61-3.33-1.77-6.23-3.96-7.72-7.63-2.39-5.91-.23-10.16,5.86-11.89,2.81-.8,5.56-1.11,8.41-.51Z"/>
    <path class="cls-15" d="M92.07,210.48c-7.1.06-12.14-5.08-11.54-11.13.46-4.7,4.16-7.3,8.72-6.04.97.27,1.87.44,2.91.38,5.63-.3,9.28,2.07,9.97,6.33.69,4.31-2.69,8.74-7.72,10.04-.96.25-1.96.36-2.33.42Z"/>
    <path class="cls-8" d="M34.06,146.16c6.03-1.19,10.7,1,12.9,6.15,2.94,6.87-1.85,13.13-9.11,11.79-3.1-1.4-5.75-3.28-7.26-6.49-2.38-5.06-1.31-8.66,3.48-11.45Z"/>
    <path class="cls-15" d="M197.54,183.15c-4.93.01-8.74-3.63-8.74-8.35,0-4.86,4.74-9.4,9.84-9.42,3.9-.01,8.42,4.62,8.34,8.55-.1,5.09-4.31,9.21-9.43,9.22Z"/>
    <path class="cls-17" d="M127.06,206.5c.02,4.23-2.95,7.9-6.91,8.53-3.95.63-7.95-2-9.15-6.03-.14-.47-.24-.97-.29-1.46-.39-3.73,2.05-6.43,5.86-6.67,10-.63,9.77,1.14,10.5,5.62Z"/>
    <path class="cls-17" d="M164.02,199.18c3.16-.08,5.6,2.58,5.63,6.12.03,4.02-3.24,7.54-7.12,7.66-3.21.09-5.43-2.03-5.47-5.25-.05-3.67,3.85-8.45,6.96-8.53Z"/>
    <path class="cls-4" d="M185.43,194.19c-.1,3.21-3.14,5.91-6.57,5.83-3.67-.09-6.36-2.89-6.24-6.51.11-3.35,2.7-5.66,6.21-5.53,3.81.14,6.7,2.86,6.6,6.22Z"/>
    <path class="cls-17" d="M112.85,196.55c-3.91.01-7.1-3.02-7.01-6.68.07-2.69,1.48-4.17,4.17-4.2,4.57-.07,8.42,2.56,8.44,5.64.02,2.92-2.45,5.23-5.6,5.24Z"/>
    <path class="cls-6" d="M130.03,71.75c-.17-4.44.76-7.48,2.26-10.36.38-.74.87-1.72,1.93-1.34,1.03.38.86,1.37.64,2.24-.78,3.15-2.28,5.93-4.82,9.46Z"/>
    <path class="cls-22" d="M138.56,44.17c1.5.26,2.2,1.12,1.98,2.38-.33,1.85-1.56,3.28-3.36,3.48-1.4.16-.99-1.43-.97-2.3.05-1.69.56-3.16,2.35-3.56Z"/>
    <path class="cls-7" d="M160.04,77.02c-.06,1.43-.81,2.3-2.27,2.44-1.4.13-2.09-.69-2.14-2-.06-1.47.68-2.4,2.18-2.49,1.33-.07,2.04.73,2.23,2.05Z"/>
    <path class="cls-29" d="M139.04,80.19l2.68-5.82,1.01.55c-1.07,1.84.79,5.29-3.7,5.25,0,0,.02.02.02.02Z"/>
    <path class="cls-26" d="M145.81,63.58c-.16.96-.81,1.74-1.83,1.9-.65.1-1.04-.61-.9-1.29.21-.99.6-1.94,1.8-1.99.78-.03.97.58.93,1.39Z"/>
    <path class="cls-5" d="M101.97,75.68c1.31.1,2.1.81,2.53,1.94,1.02,2.66,2.03,5.33,3.01,8.01.25.68.62,1.46.02,2.1-.62.66-1.4.22-2.07.02-3.57-1.05-6.64-5.34-6.33-8.76.16-1.81.96-3.04,2.84-3.3Z"/>
    <path class="cls-21" d="M115.01,99.24c-2.87-.32-5.66-2.81-5.29-4.77.26-1.37,1.18-1.77,2.46-1.57,1.83.28,5.36,4.14,4.98,5.52-.32,1.15-1.3.88-2.15.82Z"/>
    <path class="cls-10" d="M37.83,126.65c.72.07,1.52-.04,2.15.23,2.8,1.23,4.5,4.7,3.03,6.63-2.07,2.71-4.48,1.77-6.72-.04-1.22-2.67-.8-4.96,1.55-6.82Z"/>
    <path class="cls-1" d="M37.83,126.65c-.92,2.18-1.52,4.44-1.55,6.82-2.01-1.11-3.21-2.91-2.72-5.08.47-2.09,2.56-1.81,4.26-1.74Z"/>
    <path class="cls-18" d="M91.17,205.37c-1.83-.04-3.46-.6-4.62-2.06-.96-1.21-1.59-2.62-.97-4.16.59-1.5,2.07-1.12,3.26-1.2.99-.06,2.02-.13,2.98.06,2.09.43,4.85.14,5.18,3.19.24,2.15-2.85,4.21-5.82,4.17Z"/>
    <path class="cls-16" d="M42.73,156.34c-.14,1.57-.86,2.7-2.73,2.75-2.46.07-5.57-3.22-5.68-6.03-.07-1.7.71-2.52,2.43-2.52,2.76,0,6.01,3.05,5.98,5.79Z"/>
    <path class="cls-12" d="M197.67,178.17c-2.18-.15-3.72-1.14-3.76-3.37-.05-2.6,1.6-4.33,4.04-4.58,2.25-.24,3.88,1.32,3.94,3.59.07,2.65-1.78,3.92-4.22,4.37Z"/>
    <path class="cls-3" d="M122.47,206.8c-.36,1.86-1.27,3.27-3.39,3.27-2.06,0-3.44-1.25-3.36-3.21.1-2.6,2.59-2.35,4.28-2.63,1.64-.27,2.44.9,2.47,2.57Z"/>
    <path class="cls-28" d="M162.83,208.06c-.72-.02-1.22-.4-1.13-1.11.19-1.35.59-2.86,1.91-3.33,1.21-.43,1.16.92,1.21,1.71.08,1.41-.69,2.29-1.99,2.74Z"/>
    <path class="cls-11" d="M179.41,195.26c-1.14-.03-2.02-.46-2.07-1.68-.05-1.25.66-2.35,1.87-2.4,1.04-.04,1.65,1.05,1.83,2.08.22,1.24-.48,1.84-1.64,2Z"/>
    <path class="cls-2" d="M113.65,191.1c-.11.85-.7.95-1.35.8-.89-.21-1.68-.66-1.81-1.65-.09-.71.35-1.25,1.11-1.07,1,.24,1.81.81,2.05,1.92Z"/>
  </g>
  <g>
    <path class="cls-20" d="M535.36,119.17c-1.5-6.21-2.37-13.22-4.75-19.14-1.7-4.25-5.63-6.65-9.91-4.35-2.01,1.08-2.78,3.53-2.3,5.65,6.28,27.6-.36,56.41,2.79,84.39.71,6.32,10.72,6.4,10,0-3.25-28.93,3.36-58.45-3.14-87.04l-2.3,5.65.74-.4h-5.05c.73.34,1.76,7.55,2.03,8.64.75,3.09,1.5,6.18,2.25,9.27,1.51,6.25,11.16,3.6,9.64-2.66h0Z"/>
    <path class="cls-20" d="M540.57,110.13c-1.21,5.97-3.28,11.53-6.54,16.69-1.52,2.41-3.75,4.42-4.43,7.21-1.13,4.68-1.56,9.65-2.33,14.4-1.65,10.22-3.31,20.44-4.96,30.66l9.82,1.33-.03-14.31h-10c.66,5.6,1.66,11.09,3.18,16.53,1.15,4.1,6.99,4.96,9.14,1.19,1.74-3.04,1.78-6.31.26-9.49-.6-1.25-1.72-2.27-2.26-3.51-1.28-2.9,0-4.69,1.19-7.5,3.25-7.76,3.04-15.78,2.79-24.04-.2-6.82-.42-14.79,4.27-20.31,2.93-3.45,7.59-5.62,11.37-7.98s7.43-4.66,11.16-6.96c2.35-1.45,3.03-1.76,5.78-1.21,1.49.3,2.99.76,4.42,1.24,4.08,1.35,7.58,3.32,9.85,7.1,3.58,5.97,3.77,13.59,5.23,20.25,1.96,8.93,5.47,17.21,6.27,26.42s-.16,18.49-2.68,27.46l9.14-1.19c-3.79-6.35-.95-14.12.11-20.88,1.22-7.81.79-15.4-1.66-22.93-1.98-6.1-11.64-3.49-9.64,2.66,2.89,8.89,1.76,16.5.25,25.48-1.22,7.23-1.57,14.21,2.32,20.72,2.21,3.69,7.97,2.97,9.14-1.19,4.47-15.88,4.32-32.53-.48-48.31-2.15-7.08-3.55-14.07-5.06-21.3-1.31-6.27-3.47-12.6-8.13-17.19s-11.48-6.92-17.88-8.33c-7.89-1.73-13.61,3.59-19.97,7.56s-13.4,7.3-17.9,13.16c-4.01,5.2-5.44,11.69-5.84,18.13-.51,8.14,1.38,16.71-.87,24.68-1.2,4.26-4.18,8.15-4.06,12.75.04,1.69.49,3.37,1.22,4.88.15.32,3.22,4.57,3.07,4.82l9.14,1.19c-1.27-4.56-2.27-9.16-2.82-13.87-.73-6.21-10.01-6.61-10,0l.03,14.31c.01,5.44,8.9,7.05,9.82,1.33,1.68-10.38,3.36-20.75,5.04-31.13.75-4.61,1.08-9.56,2.28-14.08.27-1,.12-.24-.17.28,1.45-2.69,3.7-5.02,5.2-7.74,2.8-5.1,4.75-10.61,5.91-16.3,1.27-6.28-8.37-8.97-9.64-2.66h0Z"/>
    <path class="cls-20" d="M343.72,169.91c6.81-4.53,9.67-11.64,10.46-19.56.4-4.05.85-8.74-.11-12.75s-4.25-7.38-7.42-10.06c-6.33-5.35-13.87-9.29-21.99-11.08-4.03-.89-8.18-1.38-12.29-.79-1.66.24-10.34,3.43-11.26,1.12-2.35-5.88-11.02-3.77-9.64,2.66.32,1.52.74,2.49,1.5,3.84,1.31,2.35,4.55,3.15,6.84,1.79,4.02-2.38,8.16-4.49,12.55-6.08,1.59-.58,3.21-1.11,4.84-1.58,1.09-.32,2.18-.61,3.28-.88-1.6-.64-1.9-.62-.9.04,4.82,6.63,13.36-5.8,15.1-9.01,3.06-5.66-5.39-10.63-8.63-5.05-2.79,4.81-5.75,12.25-2.29,17.45,2.95,4.44,9.74,6.22,14.7,6.71,2.17.21,2.51-.05,3.79,1.6.82,1.05,1.08,2.8,1.65,4.04,1.43,3.12,3.87,4.51,5.71,7.19,4.2,6.12,1.8,15.36-2.06,20.94-1.88,2.72-4.3,5.2-7.85,5.05-1.56-.07-2.84-.56-4.46-.41-2.87.28-5.74.86-8.59,1.28-5.87.88-11.74,1.75-17.62,2.63s-4.13,9.74,1.33,9.82c1.83.03,2.91-.58,4.59-1.09,1.86-.56,3.02-.28,5.15.04,5.2.78,10.4,1.61,15.6,2.41l1.33-9.82c-1.41.1-2.81.19-4.22.29,1.61,2.11,3.21,4.22,4.82,6.33l.46-1.24c.8-2.15-.57-4.48-2.3-5.65-3.3-2.23-7.32-2.06-10.77-.15-1.61.89-2.85,2.32-4.44,3.22-2.39,1.35-5.45.87-8.11.84-4.83-.05-9.72-.31-14.52.26-3.15.38-5.5,1.13-8.63.83l4.82,3.67c-1.44-4.59.61-9.89.9-14.58s-.63-9.54-.64-14.35c0-5.28,1.53-10.45,1.62-15.76s-.51-10.45-.82-15.67c-.6-10.24-.03-20.31.77-30.52.57-7.24-.06-17.72-8.88-19.53l2.99,7.34,1.45-2.71c.25-.47.48-1.14.82-1.54l.33-.61c.21-.56.29-.55.23.03-.68.26,3.7-.14,3.45-.12,1.08-.09,2.17-.07,3.25-.09,3.05-.06,6.1-.07,9.15-.11,4.15-.05,11.83-1.62,15.11,1.15,3.94,3.32,6.4,6.53,12.14,5.02,2.87-.76,4.91-4.71,2.99-7.34-.95-1.3-1.85-2.6-2.73-3.95l-5.65,7.34c5.18,1.11,6.57,7.41,7.55,11.93,1.36,6.25-3.99,9.96-7.91,14.12l8.36,4.86c2.23-6.09,4.38-12.45,3.94-19.04-.39-5.8-2.96-10.97-5.89-15.89-3.29-5.52-11.94-.5-8.63,5.05,2.36,3.96,4.53,7.9,4.59,12.64.07,5.01-1.96,9.96-3.65,14.58-1.74,4.76,5.06,8.36,8.36,4.86,6.86-7.28,12.99-13.14,10.48-23.84-1.89-8.1-5.52-16.98-14.54-18.91-4-.85-8.18,3.47-5.65,7.34.88,1.34,1.78,2.65,2.73,3.95l2.99-7.34c-.66.17-4.19-4.14-5.06-4.69-2.19-1.37-4.58-1.85-7.15-1.96-6.53-.29-13.17.13-19.71.21-5,.06-12.44-.31-16.32,3.57-1.66,1.66-2.59,4.38-3.68,6.43-1.43,2.67-.3,6.67,2.99,7.34,3.97.82.63,21.15.53,24.5-.27,9.04.58,17.96.97,26.97s-1.85,17.38-1.08,26.3c.4,4.6.24,8.92-.44,13.48-.63,4.22-1.22,8.03.09,12.19.71,2.28,2.54,3.45,4.82,3.67,2.54.24,4.09.19,6.6-.35,4.19-.9,8.35-.82,12.62-.78,4.03.04,8.49.61,12.48-.25,1.91-.41,3.53-1.18,5.14-2.26.83-.56,3.43-3.5,4.59-2.72l-2.3-5.65-.46,1.24c-1.09,2.94,1.76,6.54,4.82,6.33,1.41-.1,2.81-.19,4.22-.29,5.23-.35,7.25-8.91,1.33-9.82-5.53-.85-11.05-1.71-16.58-2.56-2.16-.33-4.36-.82-6.54-.72-1.66.08-3.46,1.58-4.89,1.56l1.33,9.82c6.47-.97,12.95-1.93,19.42-2.9,2.23-.33,4.88-1.18,7.14-1.07-3.17-.16,1.53.84,2.31.83,1.68-.01,3.39-.33,4.97-.89,2.92-1.03,5.53-2.89,7.6-5.17,4.5-4.95,8.03-11.66,8.44-18.4.38-6.23-.65-14.91-5.39-19.4-2.87-2.72-3.41-4.98-5.3-8.42-1.34-2.45-3.21-4.55-5.8-5.66-3.23-1.39-6.78-.63-10.1-1.84-2.03-.74-2.35-.51-2.58-2.48-.21-1.75,1.45-4.26,2.28-5.68l-8.63-5.05c-.66,1.23-1.34,2.4-2.21,3.5-.5.64-2.76,2.22-.72,2.01l3.54,1.46c-1.8-1.41-2.99-2.71-5.43-2.94-2.76-.26-5.7.88-8.3,1.7-6.35,1.99-12.43,4.79-18.16,8.18l6.84,1.79-.49-1.46-9.64,2.66c2.36,5.9,7.68,8.53,13.91,7.87,3.68-.39,7.11-1.91,10.84-1.94,3.52-.03,7.08.9,10.39,2.01,5.54,1.85,16.07,6.67,17.82,12.89.95,3.37.09,9.01-.59,12.29-.71,3.45-2.13,6.72-5.15,8.73-5.34,3.55-.33,12.21,5.05,8.63h0Z"/>
    <path class="cls-20" d="M428.45,93.78c-3.07,2.11-7.17,1.01-10.32,3.5-1.17.92-1.93,1.98-2.62,3.26-1.58,2.97-2.79,6.21-4.16,9.28-2.92,6.52-5.85,13.04-8.77,19.56l9.32,2.52c.12-5.5,3.9-9.44,7.49-13.19,3.01-3.14,6.34-8.28,10.53-9.83s8.62-.36,12.1-4.1c2.8-3,3.04-6.72,1.35-10.28-.85-1.79-3.75-3.07-5.65-2.3-2.78,1.13-5.77,1.16-8.58,2.2-3.01,1.12-5.53,3.16-8.14,4.99-5.22,3.67-11.34,7.03-16,11.4-4.04,3.79-3.86,11.22-4.73,16.37-1.04,6.18-1.45,13.07-4.64,18.58l9.32,2.52c-.2-2.34-.4-4.68-.6-7.02h-10c1.64,12.74,1.92,25.53.83,38.33l9.32-2.52c-1.6-3.41-.54-7.89-.3-11.49.26-3.82.33-7.65.43-11.48.22-8.23.43-16.46.64-24.69.21-8.19.43-16.37.64-24.56.09-3.49.59-7.5-1.94-10.33-1.79-2.01-4.83-2.68-7.3-1.8-3.39,1.2-3.78,3.87-3.98,7.01-.27,4.18-.4,8.38-.61,12.57-.4,8.38-.81,16.75-1.21,25.13-.18,3.74-.49,7.5.11,11.22.51,3.16,2.84,6.33,2.76,9.35-.11,3.96-1.76,8.36-2.31,12.34-.6,4.27-.97,8.56-1.15,12.87-.25,5.91,8.02,6.41,9.82,1.33.47-1.33.87-3.05,1.63-4.27l-4.32,2.48c-2.45.15-.98.03-2.21,1.92-3.52,5.41,5.14,10.43,8.63,5.05,3.09-4.75,2.74-11.87-2.01-15.52-6.49-4.99-9.61,2.72-11.37,7.69l9.82,1.33c.34-7.95,1.94-15.42,3.28-23.21,1.09-6.3-3.01-10.79-2.92-17.05.21-15.04,1.42-30.13,2.15-45.16l-2.48,4.32-.7.31-3.54-1.46c.77.6-.27,8.1-.31,9.57-.09,3.46-.18,6.93-.27,10.39-.19,7.26-.38,14.52-.57,21.78-.18,6.99-.23,14-.61,20.98-.36,6.5-1.31,12.35,1.55,18.45,2.31,4.91,8.94,1.92,9.32-2.52,1.09-12.8.81-25.59-.83-38.33-.8-6.21-10.56-6.52-10,0,.2,2.34.4,4.68.6,7.02.4,4.72,6.67,7.09,9.32,2.52,2.5-4.31,3.59-8.91,4.43-13.78.95-5.48,1.12-11.82,2.89-17.09,1.64-4.89,9.52-8.43,13.66-11.34,2.17-1.52,4.39-3.55,6.81-4.62,2.63-1.16,5.63-1.04,8.31-2.13l-5.65-2.3c-1.64-3.47-9.87.43-11.92,1.78-3.41,2.24-5.97,5.53-8.73,8.47-6.1,6.48-11.97,12.69-12.19,22.1-.11,4.69,7.23,7.17,9.32,2.52,2.66-5.94,5.33-11.88,7.99-17.82,1.47-3.27,2.7-6.82,4.46-9.94.22-.39.38-1.35.73-1.63.81-.63,2.77-.38,3.72-.55,2.06-.37,3.66-.88,5.38-2.07,5.28-3.62.28-12.29-5.05-8.63h0Z"/>
    <path class="cls-20" d="M706.83,160.15c-6.29,17.38-27.64,21.93-43.76,17.27-8.16-2.36-15.47-8.05-20.31-15.05-2.28-3.29-3.98-7-4.41-11.01-.52-4.85,2.84-8.73,4.69-12.99l-6.84,1.79-.75-.94v-5.05l-.17.31,2.99-2.3,1.88.04,2.99,2.3-.23-.41.5,3.85.13-.79-9.14,1.19c-1.05,1.79-.91,2.06.42.79l2.3,2.99c-1.25-3.34,2.64-9.7,3.7-13.27,1.35-4.52,2.41-9.26,4.71-13.42,3.92-7.09,12.91-8.23,17.09-15.46l-2.99,2.3c11.31-4.3,22.68-.96,33.96,1.71v-9.64c1.24-.27-1.08-.26-1.9-.53l2.99,7.34.02-.03-4.32,2.48c1.07.02,2.16.23,3.21.38v-9.64c-.63.24-1.72.2-1.11.65l2.48,4.32v-.31c-1.22,1.61-2.45,3.21-3.67,4.82.03-.01,1.61.06,2.31.17l-2.21-8.36c-9.44,9.89,9.46,16.76,16.39,20.14l-2.3-2.99c2.73,8.37,4.78,16.92,5.82,25.67l1.46-3.54c1.61-1.41-.58-1.01-1.97-1.26-1.6-.29-3.2-.53-4.81-.75-2.98-.42-5.98-.75-8.98-.98-6.32-.49-12.66-.59-19-.63-6.03-.04-12.07,0-18.1-.21-5.73-.19-10.8-1.72-15.56,1.77-5.14,3.77-.15,12.45,5.05,8.63.62-.45,2.23-1.24,1.95-1.21-.36.04,3.6.59,3.76.6,2.87.16,5.75.25,8.63.31,5.71.11,11.41.08,17.12.13,6.03.06,12.06.22,18.06.76,3.09.28,6.17.67,9.22,1.22,2.6.46,5.35,1.53,7.98.84,4.3-1.13,5.38-4.33,4.86-8.39-.72-5.6-1.76-11.16-3.18-16.63-1.23-4.75-1.81-10.32-6.46-12.72-5.01-2.58-10.09-4.43-14.19-8.47l1.46,3.54v-.94c-.49,1.18-.98,2.36-1.46,3.54.45-.45.89-.9,1.33-1.37,2.35-2.46,1.7-7.75-2.21-8.36-2.36-.37-5.31-1.07-7.62-.17-2.09.81-3.67,2.46-3.67,4.82,0,5.98,7.02,6.65,11.29,4.99,3.99-1.55,5.45-8.86,0-9.64-1.93-.28-3.92-.7-5.87-.74-1.7-.03-3.51.96-4.32,2.48l-.02.03c-1.57,2.94-.16,6.32,2.99,7.34,2.18.71,4.97,1.02,7.22.53,4.81-1.06,4.72-8.53,0-9.64-12.23-2.89-27.13-7.41-39.28-1.71-2.53,1.19-3.08,3.21-5.12,4.96-1.79,1.54-4.05,2.48-6.08,3.67-4.8,2.83-7.96,6.8-10.22,11.88s-3.55,10.75-5.33,16.14-5.76,11.16-2.24,16.71c2.67,4.21,8.5,4.52,12.14,1.59,4.54-3.66,5.11-9.21,2.92-14.27-1.66-3.84-8.46-2.89-9.14,1.19-.72,4.31,2.05,8.9,7.02,7.31s4.54-8.01.32-10.3c-2.16-1.17-5.73-.75-6.84,1.79-2.37,5.43-6.29,10.29-6.15,16.46.12,5.57,1.84,10.99,4.67,15.77,5.64,9.53,15.33,17.57,25.83,21,22.09,7.2,49.32-.55,57.71-23.74,2.19-6.06-7.47-8.67-9.64-2.66h0Z"/>
    <path class="cls-20" d="M667.51,105.57c2.17,0,4.31-.1,6.47-.3l-4.32-7.52-1.05,2.24c-1.56,3.32.26,7.56,4.32,7.52,10.21-.08,19.68-.74,25.24,9.41,4.53,8.27,4.71,18.3,5.94,27.45.85,6.35,10.49,3.64,9.64-2.66-1.58-11.77-2.2-23.93-9.55-33.84-7.73-10.41-19.43-10.45-31.27-10.36l4.32,7.52,1.05-2.24c1.46-3.09-.2-7.89-4.32-7.52-2.16.19-4.3.29-6.47.3-6.43.01-6.45,10.01,0,10h0Z"/>
    <path class="cls-20" d="M789.39,175.81c2.95-2.27,7.91-1.4,11.45-1.47,4.8-.1,9.46-.46,14.02,1.3l-3.49-6.15c-.33.87-.66,1.75-.99,2.62l.51-.72c-1.41.19-3.77-.49-5.15-.64-3.83-.42-7.67-.7-11.52-.87s-7.7-.2-11.55-.11c-1.6.04-3.21.1-4.81.18-.88.05-6.05-.25-3.98.65l2.3,2.99c.4,1.19-1.36,2.54.43,1.27.81-.58,1.44-1.96,1.8-2.82.85-2.06.66-3.93.33-6.08-.69-4.53-7.06-4.49-9.14-1.19-2.62,4.15-6.47,6.27-11.24,6.99l6.33,4.82c-1.23,1.87-.91,2.35.96,1.42.79-.3,1.55-.65,2.29-1.06,1.07-.66,1.93-1.55,2.72-2.5,2.15-2.54,3-5.84,5.15-8.38,5.53-6.54,10.98-12.88,16.18-19.75s11.03-13.31,15.21-20.6c1.98-3.46,2.97-7.33,5.25-10.64,2.15-3.12,3.64-5.76,3.86-9.61.1-1.71-1.01-3.49-2.48-4.32-1.79-1.01-3.18-1.08-5.14-.72l6.33,4.82c1.18-9.32,2.24-18.66,3.35-27.99.46-3.85-4.56-6.13-7.52-4.32,1.69.7,2.56.19,2.61-1.53,1.23-3.38-1.89-5.97-4.82-6.33-12.32-1.5-24.64-2.99-36.96-4.49v10c4.72.24,9.43.56,14.13.99,3.46.32,9.36-.3,11.38,2.66,1.24,1.82,3.84,4.39,4.5,5.46.83,1.35.83,3.94,1.17,5.56.51,2.39.96,4.8,1.52,7.18,1.28,5.44,4.66,15.94,12.27,13.39s5.41-13.85,4.76-19.6c-.41-3.65-.8-7.51-2.67-10.75-1.71-2.97-4.61-4.29-6.09-7.36-2.94-6.09-7.59-7.57-13.72-9.28-3.07-.86-5.48-3.01-8.63-3.5-3.65-.57-7.68.32-11.34.75-3.3.39-6.74.58-9.81,1.95-3.79,1.7-7.16,4.59-10.57,6.94-4.49,3.11-1.88,10.7,3.85,9.14,2.45-.67,4.74-1.57,7.03-2.63l-6.06-7.85c-6.49,6.88-13.95,10.97-17.82,20.07-1.72,4.06-3.19,8.4-4.03,12.74-1.01,5.21.79,9.39,3.84,13.56s10.89,1.97,9.14-3.85c-2.54-8.45-12.9-6.5-13.88,1.68-.77,6.38,9.24,6.32,10,0l.13.53-2.99,2.3-2.9-1.85,9.14-3.85c-2.89-3.96-2.96-5.86-1.63-10.43.97-3.34,1.98-6.71,3.72-9.74,3.43-5.95,9.74-9.18,14.36-14.07,4.07-4.31-1.02-10.17-6.06-7.85-1.53.7-3.02,1.18-4.65,1.62,1.28,3.05,2.57,6.09,3.85,9.14,2.71-1.88,5.39-4.06,8.26-5.7s5.68-1.68,8.78-2.03c3.44-.38,6.61-1.04,9.76.27,2.6,1.09,4.96,2.04,7.71,2.78,2.97.8,4.11,1,5.62,3.67s2.12,4.24,4.51,6.22c2.87,2.38,3,5.56,3.33,9.12.12,1.36,1.18,8.58.2,9.52l3.54-1.46-1.26.13,3.54,1.46c-4.53-3.72-4.69-13.34-5.88-18.7-1.11-5.02-4.15-7.3-6.78-11.35-2.94-4.53-7.63-4.72-12.56-5.28-6.88-.79-13.79-1.32-20.7-1.67s-6.22,9.25,0,10c12.32,1.5,24.64,2.99,36.96,4.49l-4.82-6.33c-1.48,4.05-1.95,8.69,1.28,12.07,3.02,3.16,7.3,2.89,10.79.75l-7.52-4.32c-1.11,9.33-2.16,18.67-3.35,27.99-.45,3.51,3.53,5.33,6.33,4.82l.69-.12-3.85-.5.61.34-2.48-4.32c-.17,3.05-3.8,6.35-5.06,9.21-1.72,3.91-3.33,7.26-5.87,10.71-5.07,6.9-10.34,13.66-15.51,20.49-2.45,3.23-4.81,6.54-7.59,9.5-2.55,2.72-5.16,5.14-6.99,8.42-.6,1.07-.98,2.58-1.79,3.52-1.39,1.6-3.03,1.38-4.88,2.37-2.61,1.4-4.03,3.97-3.93,6.89.12,3.54,3.08,5.31,6.33,4.82,7.33-1.1,13.29-5.37,17.21-11.58-3.05-.4-6.09-.8-9.14-1.19-.1-.62-1.81,1.46-1.97,1.72-.57.92-1.09,2.51-1.09,3.58-.02,2.45,1.43,4.67,3.6,5.66,2.57,1.18,5.51.51,8.24.37,3.85-.2,7.7-.27,11.55-.21,7.42.11,14.69,1.37,22.06,1.72,6.23.3,7.67-4.35,9.54-9.33,1.02-2.7-1.16-5.25-3.49-6.15-5.87-2.26-12.18-1.75-18.36-1.62-4.98.11-10.65-.41-14.82,2.8-5.03,3.87-.06,12.56,5.05,8.63h0Z"/>
    <path class="cls-20" d="M860.61,72.86c6.6-1.81,13.25-.09,19.88.66,3.03.34,6.03.51,9.07.2,1.56-.16,3.17-.67,4.73-.64,2.12.05,3.59,1.14,5.44,2.09,5.43,2.8,12.33,3.38,17.22,7.12,4.63,3.53,3.84,10.35,7.96,14.55,1.96,2,5.08,1.8,7.07,0,1.32-1.19,2.07-2.58,2.35-4.35.24-1.53-.74-3.68-.21-5.06l-9.14,1.19c2.31,3.6,4.16,7.34,5.31,11.47,1.08,3.89.97,8.06,2.22,11.87,2.26,6.88,6.83,16.67,1.43,23.42l8.36,4.86c.67-1.9,1.33-3.79,2-5.69.72-2.05-.48-4.61-2.3-5.65-.62-.36-1.25-.71-1.87-1.07l1.79,6.84,1.89-3.83-9.32-2.52c-.5,7.64-7.02,16.02-12,21.47s-11.62,9.48-18.54,12.24c-7.7,3.07-15.87,4.85-23.95,6.6-3.65.79-7.33,1.68-11.09,1.57-2.14-.06-4.23-.43-6.28-1.06-.78-.24-2.19-.51-2.81-1.04.96.84.13-.63.12-1.6-.09-7.63,5.42-15.24,3-22.87-.72-2.26-1.65-3.89-1.23-6.34.3-1.77.96-3.47,1.4-5.21.95-3.74,1.4-7.5,1-11.34-.37-3.63-2.06-6.82-2.57-10.35-.55-3.83.9-8.27,1.29-12.14s.54-8.05.43-12.07c-.06-2.17-.22-4.33-.42-6.5-.04-.39-.78-5.56-1.12-5.19-.28.3,4.19,1.86,4.57,1.94,2.04.43,4.26.42,6.32.52,4.64.22,9.3.22,13.94,0,4.25-.2,9.1-1.16,13.24.11,3.81,1.17,6.16,3.86,10.38,4.13,5.54.35,6.93-8.92,1.33-9.82-16.97-2.73-33.93-5.46-50.9-8.2-6.3-1.01-9.01,8.62-2.66,9.64,16.97,2.73,33.93,5.46,50.9,8.2l1.33-9.82c-1.61-.1-3.53-2.06-4.97-2.72-1.94-.89-3.91-1.36-6.02-1.64-5.11-.68-10.28.09-15.41.23-4.57.13-10.42.82-14.87-.33-3.88-1.01-6.31-3.57-10.64-1.53-8.78,4.13-4.96,16.29-4.96,23.76,0,5.4-.6,10.65-1.41,15.98-.75,4.92.17,8.37,1.55,13.05,2.78,9.41-4.03,17.93-.61,27.25,1.76,4.81-1.38,10.65-2.25,15.55-.71,3.99-1.38,9.43.94,13.07,4.28,6.72,16.94,6.82,23.74,5.84,9.93-1.43,20.22-3.93,29.64-7.39s18.03-8.18,24.67-15.46c7.04-7.72,14.23-17.84,14.93-28.54.32-4.87-7.15-6.92-9.32-2.52l-1.89,3.83c-1.19,2.4-.69,5.42,1.79,6.84.62.36,1.25.71,1.87,1.07l-2.3-5.65c-.67,1.9-1.33,3.79-2,5.69-1.6,4.55,5.24,8.77,8.36,4.86,6.58-8.24,6.21-19.48,2.99-29.16-.71-2.15-1.96-3.97-2.4-6.22-.52-2.64-.61-5.32-1.23-7.95-1.31-5.53-3.7-10.78-6.76-15.56-2.46-3.83-7.62-2.8-9.14,1.19-.52,1.37-.64,2.29-.52,3.76l.18,1.33c.19,1.76.45,1.73.78-.1h7.07c-2.14-2.18-2.03-6.08-3.38-8.8-1.49-3.02-3.82-5.43-6.6-7.31-6.07-4.1-13.75-5.46-20.23-8.81s-14.1-.48-21.28-1.34c-7.65-.91-14.93-2.39-22.54-.3-6.2,1.7-3.57,11.35,2.66,9.64Z"/>
    <path class="cls-20" d="M471.83,98.58c-1.47,27.48-1.5,55.01-1.18,82.52l9.82-1.33-.3-.82h-9.64l.12,2.15,8.54-3.54c.53.67-.46-.91-.41-.97-.12-.21-.22-.43-.29-.66-.34-1.17-.79-.38-1.33,2.38l-3.54,1.46.51.02-3.54-1.46c-.63-.53-.03,1.99.06,2.78l8.54-3.54c-3.84-4.68.33-11.98,1.24-17.2,1.12-6.43,1.61-12.94,1.75-19.46.31-13.43-.63-26.86.84-40.25l-9.82,1.33c.29,1.45.32,2.91.09,4.38l9.82,1.33c-.24-2.36-.18-4.67-.09-7.04l-9.82,1.33c1.93,12.53.95,25.32-.77,37.82-1.44,10.44-5.31,20.86.02,30.64,3.08,5.65,11.72.61,8.63-5.05-2.68-4.93-.97-9.91-.15-15.2.86-5.59,1.68-11.18,2.3-16.8,1.26-11.41,1.37-22.71-.39-34.08-.89-5.77-9.61-4.06-9.82,1.33-.09,2.37-.15,4.67.09,7.04.51,5.09,8.96,7.37,9.82,1.33.48-3.37.5-6.33-.09-9.69-1.05-6-9.26-3.8-9.82,1.33-1.67,15.21-.2,30.49-1.05,45.73-.42,7.65-2.13,14.55-3.83,21.96-1.43,6.21-.03,11.41,3.97,16.29,2.64,3.22,8.99.67,8.54-3.54-.49-4.57-2.31-14.81-9.56-10.65-5.4,3.1-1.83,10.6,1.02,14.18s8.6.49,8.54-3.54c-.03-1.69-.21-3.14-.48-4.81-.77-4.88-8.69-4.66-9.64,0-.44,2.17-.55,4.07.3,6.14,1.99,4.87,9.89,4.77,9.82-1.33-.31-27.51-.29-55.04,1.18-82.52.34-6.43-9.66-6.41-10,0h0Z"/>
    <path class="cls-20" d="M467.49,64.48l.31,4.21c.21,2.86,3.09,6.15,6.33,4.82,5.37-2.21,8.16-6.97,7.09-12.75l-8.36,4.86c.89.69,1.58,1.7,2.38,2.36-.5-.42.88,2,.23-.07-.17.53-.14.54.09.03-.63,1.04-.07.68,1.7-1.1h2.66l1.17.64c-3.07-3.19-8.45-.7-8.54,3.54-.01.72-.03,1.44-.05,2.17-.15,6.44,9.85,6.44,10,0,.02-.72.03-1.44.05-2.17l-8.54,3.54c4.08,4.25,9.72,1.25,11.04-3.77,1.24-4.7-1.51-9.4-5.13-12.23-3.94-3.08-9.32-.3-8.36,4.86-.14-.78-.1.47-.05.12-.08.56-.54.53-.05.32l6.33,4.82-.31-4.21c-.2-2.69-2.16-5-5-5-2.55,0-5.2,2.29-5,5h0Z"/>
    <g>
      <path d="M364.87,156.92c-.18.72-.36,1.44-.72,2.16-.18.72,0,1.8-.18,2.34-.36,1.08-1.26,2.34-1.62,3.42-.54,1.26-.72,2.7-1.26,3.6-.36.72-1.62.9-1.44,1.98-1.08.54-1.8.9-2.7,1.62-1.08.9-1.8,1.98-2.88,2.88l-2.34,1.44c-.54.18-.9.72-1.62,1.08l-1.44.9c-.54.18-1.44.18-1.98.54-1.62,1.08-3.42,1.62-4.68,2.7-.9.18-1.62-.18-2.34,0-.18,0-.54.54-.72.54-.36,0-.72-.18-1.08,0-.54.18-.72.54-1.26.72-.18.18-.72.36-.72.36-.72.18-1.44.18-2.34.54-.54.18-.9.54-1.26.54-1.62.36-3.24.18-4.86.54-.18,0-.9.54-.9.54-.36,0-.9-.18-1.26,0-.54,0-1.44.36-1.98.54-.54,0-.9-.36-1.44-.36-.36,0-1.62.18-2.7.18-1.62,0-3.96.36-5.76.54-1.44,0-3.06-.36-4.68-.18-1.62.18-3.78,1.26-5.4-.36-1.44.9-3.06,0-4.5.18-1.62.18-2.88,1.62-4.68,1.26-.54,0-.36.9-1.08,1.26-.54.18-1.26,0-1.8.18-1.8.72-3.78,2.34-6.48.72-.72.36-1.98.36-3.06.18-.9-.9-1.62-1.98-2.34-3.24,0-1.62,1.08-3.24,1.08-4.86,0-1.44-.9-2.52-1.08-3.78-.18-1.08,0-2.34,0-3.42s-.36-2.16-.54-3.24c-.18-1.8-.18-3.06.18-5.04.18-.9-.18-2.7.72-4.32-.18-.72-.54-1.62-.54-2.52,0-1.08.54-2.34.54-3.6.18-1.08-.18-2.52-.18-3.96.18-1.08.36-2.34.36-3.24.18-.54,0-1.8.72-1.98-.54-.9-.54-1.44-.54-2.34v-2.34c0-.9.54-1.44.72-2.34,0-.54-.36-1.26-.36-1.98,0-.36.36-.72.36-1.26s-.36-1.26-.18-1.98v-4.32c0-.9.36-1.98.36-2.88s-.54-1.8-.54-2.7c0-3.6.9-7.38-.36-10.98,1.08-.9.36-2.16.36-3.24.18-.54.18-1.8.18-2.88-.36-2.88-.18-6.3.18-10.44,0-.36.36-1.08.36-1.44,0-.72-.54-1.08-.54-1.8-.18-.72,0-1.44,0-1.98-.18-1.98-1.08-3.96.18-6.48-.72-.54-.36-1.62-.54-2.52-.18-.9-.72-1.62-.9-2.34,0-.54.36-1.08.36-1.8,0-1.26-1.08-3.42.18-4.68-.36-.9-1.08-1.26-1.08-2.34.18-1.26-.36-3.24.36-3.96-.54-.9-1.44-1.44-1.08-3.06-.36-.9-2.52-2.88-1.08-4.32.72-.54.54-1.08.9-1.44,1.26-.9,7.38,0,9.9-.54,1.98-.54,2.34-1.26,4.86-1.44.9,0,1.44-.18,2.34-.18.72,0,1.8.36,2.34.36.72,0,1.44-.54,1.98-.54.72,0,1.44.18,2.16.36h6.66c.72.54,2.16-.36,3.24-.36,2.88-.18,6.48-.18,9.54.18s4.32.54,5.94,1.8c4.68.18,8.64,2.52,11.88,4.32,1.44.9,1.62,1.08,2.88,2.34.54.54,1.26,1.08,1.62,1.62.36.54.54,1.44.9,1.98.18.36.9.72,1.08,1.26.18.72.54.72.54.9.18.54.54.72.54.9.36.54.54,1.44.9,2.34,1.26,1.08,1.62,2.88,2.88,3.96-.18,1.44.18,2.52.36,3.6.36,1.08.9,1.98,1.26,2.88,0,.72,0,1.62.18,2.34.18,1.62.18,3.6-.36,5.58l-1.26,1.98c-.36.9-.36,1.8-.72,2.52-.36,1.08-1.62,2.52-2.34,3.78l-1.26,1.98c-.36.72-1.44,1.98-1.98,2.88-.72.9-1.44,1.8-2.52,2.52-.54.54-1.26.72-1.62,1.08-.36.36-.54,1.26-.72,1.44-.36.54-1.08.54-.9,1.26.54.72,1.8.72,2.34.9.9.18,1.8,0,2.52.36,1.44.36,2.7,1.98,3.78,2.88.36.36.72.72,1.08.9,1.8,1.44,3.24,2.88,4.86,3.96,1.44,2.34,3.6,3.6,4.5,6.12.18.54.54.72.9.9.54.54.72,1.62,1.44,2.34.18.36.72,1.44,1.08,1.8,1.08,1.26,1.98,3.78,2.88,5.94.36,1.26.36,2.16.72,4.14.54,2.34,1.8,6.48,1.44,10.08,0,1.44-.54,3.24-.9,5.04ZM359.11,143.06c-1.08-.72-1.44-2.34-1.44-4.14-1.08-.54-1.26-1.8-1.62-2.88-.54-1.08-1.62-1.98-1.08-3.6-1.98-.36-1.98-2.52-3.06-3.78-1.44-1.08-2.16-2.7-3.24-4.14-1.44-.9-3.06-1.62-3.96-3.06-.18-.9-1.44-.9-1.98-1.44-2.16-2.88-7.38-1.98-11.52-2.52-.54-.9-1.62-1.8-1.8-3.24,0-1.62.36-3.06,1.26-4.14,1.26,0,.72-1.8,1.62-2.16,1.08-.72,1.98-1.8,2.88-2.34.54-.18.9-.18,1.26-.54,1.44-1.26,2.34-3.6,4.14-4.5.18-1.44,1.62-2.7,2.34-4.32l.36-1.44c.18-.36.72-.54.9-.9l.36-1.44c.54-1.26.36-2.16.72-3.96,0-.9.54-1.62.54-2.34s0-3.06-.18-3.6c-.36-1.26-1.8-2.34-1.62-3.96-1.08-.72-1.44-1.98-1.98-3.06-1.08-.72-1.62-1.98-1.98-3.24-1.08-.54-1.44-1.8-2.34-2.7-.36-.36-.54-1.08-1.44-1.08-.36-.54-.18-1.62-1.08-1.44-1.98-1.08-4.5-1.98-6.3-2.88-.72-.18-1.44-.9-1.98-1.08-1.08-.36-2.34-.18-3.78-.54-1.08-.18-2.34-.72-3.42-.9-5.04-.72-9.54,0-14.58,0-5.58,0-10.44.18-15.12,1.08-.36.18-.72.54-1.26.54-1.98.36-3.06.18-4.32.9-.36,2.7.54,5.58.72,8.64l.36,6.12c.18.72.54,1.26.54,1.98.54,3.06.54,6.3.72,9.72.18,3.24.36,6.84,0,10.08,0,1.08-.54,1.98-.54,2.88-.18.72.54,2.34.54,2.34-.9,1.98,0,4.14-.72,5.76.54.9.72,1.98.72,3.06.36,3.96-.36,9.18,0,14.22.18,1.62.72,3.24.72,4.86.18.54-.18,1.08-.18,1.8-.18.54.18,1.26.18,1.8l-.72,3.42c-.36,3.78.18,7.56-.72,10.62.72,1.98-.18,3.78-.18,5.94,0,.9.36,1.98.18,3.06,0,.72-.54,2.16-.54,3.24-.18.72.18,1.62.18,2.7,0,3.06.18,3.6.36,6.3v1.44c0,.54.36,1.26.36,1.44,0,1.44-.54,2.7-.36,3.78.18,1.26.72,2.34,1.62,2.7,1.44.54,3.06-.9,5.22-1.26,1.08-.36,2.16-.18,3.24-.36.36,0,.72-.36,1.08-.54,0,0,.36.36.72.36,1.44-.18,3.42.36,5.22.36.72.18,1.8,0,2.52.18.9,0,2.34.36,2.34.36.72-.18,1.44-.72,1.98-.9.54.36.72,0,.9,0,1.62-.36,4.14,0,5.04-.18,1.62-.36,3.06.18,4.86.18,1.44-.18,2.88-.9,4.32-1.08.9-.18,2.16.18,3.06,0l.72-.54c.54,0,.9.18,1.26,0,1.8-.54,3.42-1.26,4.86-1.62,1.08-.18,2.16-.18,3.06-.54.36-.18.54-.72.9-.9.18,0,.54.18.72.18l.72-.72c.54-.18.9,0,1.44-.18.54-.72.9-.72,1.08-.9l1.8-.72.72-.72c.9-.54,2.16-.54,2.88-1.08.54-.18.9-.9,1.44-1.44,1.8-1.44,3.24-2.88,5.04-3.78.18-.54,0-.9.36-1.62.18-.36.72-.36.9-.72.54-1.08,1.08-2.7,1.44-4.14l.36-1.98c0-.18.54-.54.54-.9.9-1.98.54-5.58.54-7.56,0-.9.36-1.44.36-2.16-.18-1.44-1.26-2.7-.18-4.14ZM334.09,92.84c-.54,2.16-.18,4.68-.72,6.3-.18.54-1.08,1.98-1.62,2.7-.36.9-1.08,1.26-1.98,2.16l-2.16,1.98c-.18.36-.54.36-.9.72-.18.18-1.26.54-1.8,1.08-.36.36-1.44.36-2.52.72-.36.18-.54.54-.9.54l-1.26.36c-1.26.36-2.7,1.08-3.96.72-1.44.72-3.6,1.62-5.22,1.08l-3.06,1.44c-.54.18-1.26.18-1.62.54-.54.18-.72.72-1.26.72-.9.54-1.44-.18-2.7.36-1.26.36-1.26,1.8-2.88,2.16-.72.18-1.62-.18-2.88,0-.9-1.08-1.8-1.8-1.98-3.6-.36-2.16.36-4.68-1.08-6.12.18-2.88.36-5.94,0-8.64-.18-.9-.72-1.8-.9-2.7,0-.36.36-.36.36-.72,0-1.26-.36-4.14.72-5.94.36-.72-.9-1.8-.9-2.52.18-.9.36-3.06.18-4.68,0-.9-.18-1.8-.18-2.7l-.36-2.52c-.18-1.44-.9-2.52-.72-3.78.18-1.08.54-1.26,1.44-1.98.54-.54,1.26-1.26,1.8-1.44.72-.36,1.8.18,2.34-.54.9,0,.72,1.08,1.8.9,2.16-.18,4.32.18,6.3.18,1.44-.18,2.52-.72,3.78-.9.54,0,.54.36.9.36.18,0,1.98-.54,2.34-.54,1.08.18,1.62,0,2.34,0l2.52.72c1.08.18,2.16-.18,3.06,0l1.44.72c.36.18,1.26,0,1.62.18.18.18,1.26,1.26,1.8,1.62.18.18.72.9,1.08,1.08.72.36.54.36,1.08.9l1.98,2.34,1.44,1.8,1.08,1.8c1.08,1.62,2.34,2.7,2.52,4.5.18.9-.36,1.8-.36,2.88.18.9,1.26,2.88.54,4.86-.18.36-.54.36-.54.9ZM341.83,162.5c-.54.36-1.62.36-1.8,1.08.18.54-.36.54-.54.9-.18.18-.36.54-.72.72l-1.08.54c-.54.54-1.62,1.62-2.7,1.98-.72.36-1.8.36-2.7.54-.18.18-.54.54-.72.54-1.44.54-3.24.72-5.04,1.44-.18,0-.72.54-.9.54-.72.18-1.62,0-2.34.18-1.26.36-2.16.9-4.14,1.08l-3.96.54c-1.62.18-3.06.72-4.5,1.44-.72-.36-2.16.18-2.52-.36-.54.72-2.16,1.26-3.24.36-1.08,1.08-2.7.9-5.04,1.44-1.8.36-4.86,1.08-7.2-.18-.9-1.98-.18-3.42.72-4.86.36-3.24,0-5.76.18-9,0-.54.36-1.26.36-1.8,0-.9-.54-1.8-.54-2.7s.54-1.8.72-2.88c0-1.08-.18-2.16-.36-3.42v-7.02c0-1.44,0-2.7.9-3.78-.18-.72-.54-1.08-.54-2.34,0-.9.54-1.8.72-2.88,0-1.26-.54-2.52-.54-3.78,0-.72.18-1.98.36-3.42.72-3.42,2.88-4.32,5.76-2.52,1.08-.36,2.16,0,3.24-.18.54,0,.9-.54,1.44-.54.72-.18,1.44.18,2.16,0,1.08-.18,2.16-.72,3.06-.72.9-.18,1.8,0,2.7,0,1.08,0,2.16-.36,3.24-.18.72,0,1.62.54,2.52.54,1.44.18,2.7-.18,4.14-.18l3.24.72c2.52.54,4.32,1.08,5.94,2.7.9.36,1.8.54,2.52.9.54.36.54.72.9.9l1.26.36c1.26.9,2.16,1.98,3.6,2.7.18,1.26.9,2.16,1.8,2.7,1.08,3.42,2.7,6.48,4.68,9-.54,1.08.36,1.98.54,2.7.9,6.84-3.06,11.52-5.58,16.2ZM327.79,84.56c0-.36-.36-.36-.54-.54-.18-.54.18-1.08,0-1.44,0-.18-.36-.36-.54-.72l-.54-1.44c-1.8-.72-2.52-2.7-3.96-3.78-.36-.36-.9-.18-1.08-.36-.36-.18-.36-.72-.72-.9,0,0-1.08-.18-1.44-.36-1.08-.18-3.06-.18-4.86-.36-1.98-.18-3.96-.54-5.76-.36-.54,0-1.08.54-1.44.54-.72,0-1.26-.36-1.8-.36-.36,0-.72.36-1.26.54-1.8.54-3.42.36-5.22.72-.54,1.62.18,3.24.18,5.04.18.9,0,1.62,0,2.52,0,1.26.54,2.34.54,3.6,0,1.08-.36,2.34-.36,3.42-.18,1.44.18,3.42.18,4.14,0,.54-.36.9-.36,1.44.18,1.08.54,1.8.9,2.88-.9,3.06.36,6.48,1.26,9,1.08-.18,2.52-.9,3.78-1.08,1.8-.36,3.6,0,5.4-.36,1.44-.36,2.88-1.62,4.68-1.08,1.44-1.08,3.06-1.62,5.4-1.62.54-1.08,1.98-1.44,3.24-1.8.36-.72,1.08-1.26,1.62-1.98.18,0,.54,0,.72-.18,0-.18-.18-.72,0-.9.18-.36.9-.36,1.08-.9.54-.72,0-1.98,1.08-2.52-.36-1.62,0-3.24.54-4.68-.9-1.44-.18-3.96-.72-6.12ZM338.77,140.36c-.36-.9-1.08-.9-1.62-1.62-.36-.36,0-.72-.36-1.08-.36-.72-1.44-1.44-1.98-1.8-1.08-1.08-1.62-1.44-2.88-2.16-1.8-1.08-3.42-1.8-4.86-2.88-4.14-.9-7.92-1.26-11.52-1.8-.36,0-.54.54-.9.54-3.6-.72-6.66.9-11.7.72-.36.9-1.62,1.08-1.98,1.98.18,7.2-1.44,14.76-.72,21.06-.18.9-1.26,1.08-.72,1.8.18,1.62.9,4.5.72,5.76,0,.36-.36.36-.18.9,0,1.08.72,2.16.72,3.24,0,.54-.36,1.26-.36,1.98,0,.9-.18,1.44.18,2.34,2.7,0,5.04-1.08,7.74-1.62,1.98-.36,3.96-.72,5.76-.9,1.08-.18,1.44-.54,1.98-.54l2.16-.36c4.5-.9,8.82-1.8,12.6-3.78l2.88-.54c1.26-1.26,2.34-3.06,4.14-3.96.36-.72.18-1.98,1.26-2.16.18-.9.72-1.62,1.08-2.34.72-3.42-.18-6.12.54-8.1-.9-1.26-1.44-3.06-1.98-4.68Z"/>
      <path d="M447.31,112.28c-.54.54-.54.18-1.08.54-.72.36-.54.72-1.26.9-.18,0-.54.36-.9.18-1.98-.18-1.98-2.52-3.96-3.42-1.08.36-2.34,0-3.42.18-1.08.18-2.16.9-3.24,1.26-.54.36-1.26.36-1.8.54l-3.24,1.8c-.9.9-1.26,1.8-2.34,2.88-1.44,1.08-3.42,1.98-4.5,3.24-.54.72-.54,1.98-1.26,2.88-.18.54-1.08.72-1.44,1.26l-.36.72c0,.36-.36.54-.54.72-.18.36.18.9,0,1.44-.18.54-1.26,1.62-.9,3.06-.36.54-1.08.9-1.26,1.44-.18.54.18,1.08,0,1.44-.18.36-.54.36-.54.54-.36.72-.36,1.44-.72,2.16-.18.54-.72,1.08-.9,1.62-.18.54.18,1.44,0,2.34l-.72,1.44c0,1.08.18,2.16,0,3.24-.18,1.62-.9,3.06-1.26,4.86-.18,1.26.18,2.52-.18,4.14,0,.72-.54,1.44-.54,2.34-.18,1.8.9,3.6-.72,5.04.72,1.44.9,4.68-.18,5.94,1.8,5.04-.9,12.6.54,18.18.54,1.44,2.7,1.08,3.78,1.98,0,.72.9,1.26,1.08,2.34.18,1.62-1.26,3.42-2.34,3.96-.9.36-1.8-.18-3.6.18-.9.18-1.98.9-3.24,1.44-1.98.72-4.68,1.44-7.2,1.8l-3.6.54c-1.44.36-2.88,1.26-3.96,1.08-2.34-.36-3.24-2.88-3.24-5.58,0-1.08.54-2.16.36-3.24,0-1.26-.54-2.34-.72-3.42-.36-2.88,0-6.3,0-9.36,0-.9.36-1.8.36-2.52-.18-.9-.54-1.8-.54-2.7-.36-1.62-.72-2.88-.9-5.04,0-.72-.18-1.8-.18-2.52,0-1.44.54-2.7.72-4.14,0-.54-.36-.72-.36-1.44,0-1.08.54-3.24.54-4.86-.18-1.44-.72-2.88-.9-4.32,0-.72.18-1.98.18-2.16-.18-.72-.54-1.08-.54-1.62-.18-1.44-.18-3.42-.36-4.5,0-.36-.18-1.08-.18-1.44,0-.9.54-1.8.72-2.88.36-2.34-.18-4.86,0-7.2.18-1.8,1.08-3.6,1.08-5.22,0-.72-.18-1.62-.18-2.34s.36-1.62.36-2.34c-.18-.54-.54-1.44-.54-1.98-.36-1.62.36-3.24.36-5.04,0-1.08-.36-2.34-.54-3.42,0-.54.18-1.44,0-1.98,0-.54-.54-.9-.54-1.26,0-1.08.72-2.52.72-3.78,0-1.8-.54-3.6.36-5.4,0-1.26-.9-1.8-1.44-2.7.9-1.98-.36-3.96.18-5.76.9-.72,1.8-1.26,2.88-1.08,1.8,0,2.34,1.26,3.24,1.98,2.34.72,4.5,0,7.02,0,1.26,0,2.7.36,3.78.36,1.8-.18,3.06-1.62,5.76-.72.9.54.72,1.44,1.44,2.52,0,.18.54.54.54.72,0,.54-.36.54-.36.72,0,.54.36.54.36.9-.36,1.98-1.26,3.78-.54,6.12,1.44,0,2.16-1.08,3.06-1.98.36-.36,1.26-1.08,1.62-1.62.18-.18.18-.72.36-.9.18-.18.72-.18.9-.36.54-.18,1.08-1.08,1.8-1.62.72-.72,1.8-1.08,2.34-1.98,2.16-.36,4.14-2.52,6.66-1.62,1.08-1.08,4.14-2.34,5.58-1.08.9.18.9-.9,1.44-1.08,3.06,1.08,6.12-1.08,9-.36,1.08.18,1.62.9,2.34,1.26.72.18,1.62.36,2.34.9,1.62,2.52.36,5.76.18,8.64-.18.72.18,1.26.18,1.8,0,1.08-.36,2.16-.36,3.24,0,2.7.36,5.4.36,8.1-.54.36-.54.72-.9,1.08ZM427.69,95.36c-1.62,1.26-4.86,1.08-5.58,3.24-3.06,1.44-4.86,4.14-6.84,6.66l-.9.54c-.36.36-.36.72-.54,1.08-.54.72-1.26,1.08-1.8,1.8-.36.18-.36.72-.72,1.08-.18.36-.54.54-.9.9l-1.08,2.34c-1.08-.36-1.08.54-1.44.72-.72.54-.72.72-1.8.9-3.96-1.08-1.98-6.84-3.06-10.26.72-1.44.54-2.34.36-3.78,0-1.44.36-3.6-.18-5.22-3.42.18-5.94,0-9.54.72v3.78c-.18.9-.9,1.26-.9,2.16.72,1.62.54,3.24.36,4.68-.18,2.52.54,4.86.72,6.48.36,1.62,0,2.52,0,3.96-.18,2.16.36,4.32.36,6.48,0,3.24-1.08,6.84-1.08,10.08,0,3.96-.36,10.26.36,13.68.36,1.98.54,3.78.72,5.58.18,1.98-.18,4.32-.18,5.22,0,1.08.18,2.7.18,3.42.18.72-.18,1.08-.18,1.44-.18,2.16.18,4.68.36,5.94l.54,3.96c0,.9-.18,1.98-.18,2.88.18,1.26.54,2.34.54,3.24,0,1.08-.54,2.16-.54,3.24,0,2.52,1.08,4.86,1.26,7.2,1.44.54,4.14.54,5.4.18.36,0,.72-.72.9-.9.72-.36.9-.36,1.62-.54-.18-1.26-1.08-2.52-1.08-3.96-.18-.72.18-1.26.18-2.16.18-.72-.18-1.62-.18-2.34.18-1.44.9-2.88,1.08-4.5,0-.9-.36-1.8-.36-2.7,0-4.5-.18-7.92.9-11.52-1.08-1.44,0-4.5.18-5.76,0-.54-.36-1.08-.36-1.26.18-.72.54-1.44.72-2.34,0-.9-.36-1.8-.36-2.52.18-.9.72-1.8.9-2.7.54-2.16.54-4.32.72-6.3.18-1.08.18-2.34.54-3.24.18-.9,1.26-2.34,1.44-2.88.18-.36-.18-1.08,0-1.44.18-.54.9-1.08,1.26-1.62.9-2.16.9-4.14,2.16-5.76,0-3.6,2.16-5.04,3.24-7.02l.9-1.08c1.26-1.44,2.52-2.34,3.42-3.96,1.62-.72,2.34-2.34,3.78-3.42.72-.54,2.16-1.26,2.7-1.8.9-1.08,1.8-1.44,2.34-1.62.9-.36,1.62-.9,2.52-.72.54.18.9-.54,1.26-.54,1.44-.72,1.98-.36,3.42-.36,1.98,0,3.96-.9,5.94-.36.18-1.62-.18-3.06,0-4.32.18-1.8,1.08-3.24.36-5.22-4.32-2.7-9.9.9-13.86.54Z"/>
      <path d="M489.07,68.9c-.18.72-.9,1.26-1.26,1.8l-.36,1.8c-.18.9-1.26,2.52-1.8,3.6-1.08.36-2.16,1.62-3.24,1.98-.36.18-.9,0-1.44.36-1.44.54-3.24,1.62-4.86,1.62-.9,0-1.62-.54-2.34-.72l-3.6-.36c-.9-2.16-2.88-3.6-3.6-6.12l-1.62-1.8c0-1.8-1.08-3.42-1.08-5.22,0-.72.36-1.8.72-2.7l.54-3.06c.18-.36.72-.36.9-.72.18,0,.18-.54.36-.72.36-.36,1.08-.36,1.44-.9.18-.18-.18-.72,0-.9.9-.72.72-1.08.9-1.44.72-.9,2.16-1.8,3.24-2.52,1.26-.9,3.24-.54,5.58-.72.9,1.98,3.6,2.16,4.86,3.96h1.8c0,.54.36.54.72.9,1.62,1.08,3.42,3.24,4.32,5.58.18.36.18.72.18.9.36.54,0,4.14-.36,5.4ZM489.24,101.12c0,1.08.54,1.98.54,3.06,0,1.62-.72,3.6-.72,5.4,0,1.62,0,3.06.18,5.04,0,.9.36,1.08,0,1.98-1.44,3.06,0,9,0,13.14-.18,2.34-.9,4.68-1.08,7.2-.54,5.22-.36,10.8-.9,15.84-.18,1.44,0,2.88-.18,4.14-.18,3.24-.72,6.3-1.08,9.18-.18,2.16.18,4.14.18,6.12,0,1.26.18,2.16.18,3.24.18.9.54,1.8.54,2.7,0,.36-.18.9-.36,1.44,0,.36.36,1.08.36,1.08,0,.54-.36.9-.36,1.44s.36.9.36,1.26c-.18.72-.72,1.62-.72,2.52,0,1.98.54,3.78.18,5.58-1.44.72-2.7,1.8-5.22,1.26-1.26-.36-1.08-2.34-1.98-3.24-1.8-.18-2.88-.72-4.14-1.44-.9.36-2.7-.18-4.32-.36-1.8-.36-3.6-.18-4.5-.72-.18-.18-.18-.9-.72-.72-.72-.9-.36-2.7-1.26-3.42.36-.9.72-1.98.9-2.88.36-2.16-.36-4.14-.18-6.48,0-.54.18-1.26.36-1.98,0-.18.36-.36.36-.9-.18-.54-.18-1.62,0-2.88,0-.18.36-.36.36-.9,0-.36-.36-.54-.36-.72.18-.36.54-.36.72-.72.18-.54-.36-1.08-.36-1.44.54-2.52.72-7.56.9-9.18,0-1.08.18-1.44.18-2.7.18-.36-.18-.72-.18-.9.18-3.6.72-6.84.54-10.62-.18-2.34.36-4.5.36-6.66.18-2.34-.54-4.32.54-6.48-.9-2.16-.18-4.68-.18-6.84,0-1.8,0-3.42.18-5.22,0-1.26-.36-2.52,0-3.78v-1.26c.18-1.08.36-2.16.36-2.52,0-.9-.54-1.62-.54-2.34,0-.9.18-1.62,0-2.34,0-.36-.36-.54-.54-.9v-.9c0-.9,0-1.62.18-2.34-.18-1.26-1.98-1.08-2.34-1.98-.54-1.8-1.44-4.32.18-5.58,1.08-.54,2.16-.18,3.78,0,.36.18.54.36,1.08.36.18,0,.54-.36.9-.18.72.18,1.62.72,2.52.9,4.68.54,13.14-1.62,14.94-.36.72.54.36,1.62,1.08,1.8-.36,2.16-.9,4.32-.72,7.2ZM481.33,62.42c-1.26,0-1.8-.72-2.34-1.44-.9-.36-1.26,0-1.98.18-.54-.72-1.08-1.62-1.98-2.16-1.98.9-3.06,3.06-4.5,4.68.18,2.16.36,3.78.9,4.86.54,1.44,1.08,1.98,1.98,3.06.54.72.9,1.62,1.62,1.98,2.7.36,3.96-.54,5.22-1.26l1.8-1.26c.18-.18,0-.72.54-.54,0-2.34,1.62-3.6.72-6.12-.9-.36-1.44-1.08-1.98-1.98ZM482.95,108.68c-.18-.54,0-.54,0-.9-.18-3.06-.36-6.12-.36-9.36-.54-.54-1.08-.18-1.8,0-1.08.36-1.08-.72-1.98-.72-.9.72-3.78.36-3.78,1.44-.72,1.8.18,3.6.18,5.22,0,.54-.36,1.08-.36,1.08,0,.54.36.72.36,1.26,0,2.34-.18,4.14-.18,5.76v3.24c-.18,1.62-.72,3.24-.72,4.86,0,1.44.54,2.52.54,3.78,0,.72-.72,1.44-.72,2.16,0,.36.36,1.26.18,1.98v1.8c0,3.42.36,8.82,0,13.32v1.44c-.18.72-.54,1.08-.54,1.62-.18.54.18.72.18,1.26,0,.9-.18,2.88-.36,3.96l-.72,2.7c0,.36.36.9.36,1.44,0,2.16-.36,3.42-1.08,4.68.9.36.36,1.26.36,1.98,0,.9.36,1.62.18,2.7-.18,1.08-.9,2.34-.9,3.6-.18.9.18,1.98.18,3.06l.36,8.64c1.98.72,4.5.9,7.02,1.08-.36-1.8.36-3.24.36-4.68,0-3.42-1.62-9.72.54-12.42-.72-.9-.72-1.98-.72-3.06,0-.54.36-1.44.54-2.16.36-1.98.18-4.32.54-6.12,0-.72.54-1.62.54-2.34,0-.54-.36-.72-.18-1.26v-3.96c0-.36.36-1.08.36-1.26,0-.36-.54-.54-.54-.72-.18-.54.18-.9.18-1.26.18-.54-.18-1.08-.18-1.44s.18-.54.36-.9c.18-.36,0-.72,0-.9.18-.9.54-1.44.54-2.16.18-1.08,0-2.16.18-3.06.18-1.8,1.26-3.42,1.26-5.4,0-.72-.54-1.62-.54-2.34-.54-4.68.54-8.28.54-12.78,0-1.26.18-3.78-.18-4.86Z"/>
      <path d="M610.2,193.09c-.54.36-.36,1.62-1.26,1.62-.36.36-.72,0-1.08,0-.54,0-.9.36-1.26.18-.72,0-1.26-.72-2.52-.9-2.16-.18-4.5.54-6.66.54-.72,0-1.44-.36-2.16-.36-2.34,0-4.5.18-6.66-.18-.9-.18-1.8-.9-2.88-.72-.18-.9-1.44-1.08-1.62-2.34-.54-2.16,1.26-4.68.72-6.66.54-1.08,1.08-2.52,1.26-3.96-.18-1.08,0-2.34,0-2.7.36-1.26,0-3.96.18-6.12.18-2.16.18-4.68.18-7.74,0-.18-.36-.54-.36-.9.18-1.62-.18-2.34-.36-3.24-.18-.9.36-1.08.54-1.62-.18-.72-.54-.54-.54-1.26,0-.54.36-.9.36-1.44-.18-.72-.72-1.44-.9-2.34,0-.72.36-1.26.36-1.98,0,0-.36-.54-.18-.9,0-.36.18-.54.18-.9,0-.9-.36-1.8-.54-2.88,0-.9.54-2.16-.54-2.7.36-.54.36-1.26.36-1.98,0-.54-.36-.9-.54-1.8,0-.54.18-1.62.18-2.34-.18-.54-.54-.9-.54-1.62,0-1.26-.36-2.88-.9-3.78.36-1.44,0-2.7-.54-4.14,0-.18-.36-.54-.54-.54,0-.36.18-.9,0-1.26,0-.18-.36-.18-.54-.54,0-.36-.18-.72-.18-.9-1.08-2.52-2.34-5.22-2.7-8.82-1.08-1.44-2.7-2.52-3.42-4.32-2.52-1.26-3.42-2.7-7.56-2.16-.72,0-1.62.54-2.52.72-1.98.54-3.42.72-5.04,1.62-.18.18-.54.72-.9.9-.36.18-.9,0-1.08.18-.72.54-1.08,1.44-1.62,1.98l-.9,1.26-.9,1.08c-.36.72-1.62,1.8-2.52,2.34,0,.9-.9,1.26-1.26,1.98-.18.18-.18.72-.36,1.08s-.72.36-.9.54c-.72,1.26-.9,3.06-2.34,3.78-.18,2.16-1.08,3.24-2.16,4.32.18,3.06-1.62,3.96-2.52,6.12-.18.72.36,1.08.36,1.62-.9.9-1.08,2.16-1.62,3.42-.36,1.26-.54,2.7-1.26,3.6.36,3.06-1.44,6.12-1.8,9.54-.18.72,0,1.8-.18,2.52l-.72,7.92c0,.54.18,1.26.18,1.98,0,1.62-.54,3.06-.54,4.68-.18,1.08.54,2.7.36,3.78,0,.18-.36.54-.18,1.08,0,.9.18,1.98.36,2.88.18.9.18,1.98.9,2.34-.36,1.26-.36,1.8,0,2.88.54,1.98,2.16,3.24.72,5.4-.18.18-.36.18-.54.54-1.26,1.8-5.04.54-9.18.72-1.62,0-3.06.36-4.5.36h-.9c-.72.18-2.52.36-3.78.18-.72,0-1.44-.54-1.98-.9l-1.8-.9c-.72-1.08-.36-2.52-.54-3.78,0-.72-.54-1.62-.54-2.34,0-1.8.36-3.78.54-5.76,0-1.62.36-3.24.36-4.68,0-1.08-.36-2.88.72-3.96.54-.9-.54-.54-.72-1.26,0-.36.72-.9.72-1.08,0-.9-.18-1.62-.36-2.34v-5.94c-.18-2.34-.54-4.5-.72-7.56-.36-.72,0-.72,0-.72,0-.54-.36-1.08-.36-1.62s.36-.72.36-1.08c0-.72-.54-1.26-.54-1.98,0-1.08.18-2.34.36-3.24l.72-1.98c0-.54-.36-1.08-.36-1.44s.36-.72.36-1.26c-.18-1.98-.9-4.32.18-6.84-.54-1.26-1.26-2.88-.18-3.78-.36-1.26-1.08-2.16-1.08-3.6-.18-.54.18-.9.18-1.44.18-1.8-.72-5.58.54-7.2-1.08-1.98-.18-4.86-.36-7.56-.18-.72-.54-1.44-.54-2.16-.36-1.8,0-3.78-.18-5.4l-.54-1.8c-.54-1.44-.54-4.5-1.08-6.48.54-.36.72-1.26,1.26-1.98,1.62-.36,4.5-.36,5.22,1.08,1.08-.9,2.34-.36,3.78-.18.9,0,2.88-.18,4.5-.18,2.16-.18,4.14-.18,5.94-.18.72.72,1.26,1.08,1.62,1.98,1.08,2.16,1.08,6.48,1.62,9.72,1.08.18.9-1.08,1.44-1.44,1.08-.72,2.52-1.44,3.6-2.52.9-.18,1.26-.72,2.34-.54.72-.54,1.08-1.44,1.62-1.98.9-.18,1.44-.72,2.16-1.26.54-.18,1.8-.36,1.8-1.26,1.26,0,2.34-1.08,3.42-1.8.54-.18,1.26-.36,1.8-.72.54-.36.9-1.08,1.44-1.26.54-.18,1.44,0,2.34-.18l2.16-.54c.54-.18,1.08-.18,1.62-.18.72-.18,1.44-.54,2.16-.54,1.08-.18,2.34-.36,3.06-.36,1.98.72,3.96.54,5.22.72.54.18.72.54,1.26.72l3.78.54c.54.36,1.26.72,1.98.9,1.98.72,2.34.72,3.78,2.16.36.54,1.08,1.08,1.08,1.8,1.44.9,2.7,1.8,3.96,3.24l1.08,1.8c.72.72,1.62,1.08,2.34,1.8.72.54,1.08,1.62,1.98,1.8,0,1.62,1.62,2.52,2.16,3.78.54,1.08.18,2.7,1.44,3.6.18,2.16,1.62,3.96,2.52,6.12l1.08,3.24,1.08,2.88c.18.36-.18.9,0,1.26,0,.18.54.36.54.54.18.54,0,1.08.18,1.8.72,1.8,1.44,3.78,1.98,6.3.18.54,0,1.26.18,1.8.18.54.54.9.54,1.44l.36,3.24c0,.72.36,1.8.36,2.7.18.9-.18,1.8,0,2.88.18,1.8.9,3.78,1.26,5.76.36,1.26-.54,1.44-.54,2.34.36.9.9,1.98,1.08,3.24,0,.54-.36,1.26-.36,1.98,0,1.44.72,3.24-.72,4.32,1.08,2.16,1.44,5.4.54,7.56-.36,1.26.72.9.54,1.98-.9,1.8-.18,3.42-.54,5.22,0,.9-.54,1.44-.54,2.34-.54.9.9,1.98,0,3.24.18,1.26,1.08,1.62.72,3.6.36.72,1.26.9,1.98,1.44-.36,1.62.9,1.44.9,2.88.18,1.26-.9,1.08-1.26,1.8ZM601.92,168.79c0-.72-.36-1.08-.54-1.8,0,0,.36-.54.36-.9.18-1.44.36-3.06.36-3.96,0-1.44-.54-3.6-.36-4.68,0-.36.18-2.16,0-2.88-.18-.9-.72-1.62-.9-2.34,0-.9.18-1.8.18-2.7l-.54-1.44c-.36-1.62,0-2.52,0-3.78,0-.9-.54-1.98-.54-2.7,0-.36.36-.36.36-.72-.18-.9-.9-1.62-.9-2.34.18-.9.18-1.62.18-2.34-.18-.72-1.08-.72-1.26-1.62,0-2.16-.54-3.42-.9-4.86l-.36-1.26-.54-1.08c-.18-.72.18-1.26,0-1.98,0-.72-.54-1.62-.72-2.34-.36-1.08-.72-1.8-.9-2.7l-1.44-1.8c0-.72.18-1.26.18-1.98-.72,0-.9-.72-1.26-1.26l-.54-1.62c-.36-1.08-1.44-2.16-1.26-3.6-1.98-1.44-2.88-3.96-4.32-5.94-.72-.18-1.44-.72-1.62-1.08-.54-.72-1.62-.9-2.16-1.26s-1.08-.54-1.26-.9c-.54-.54-.36-1.44-1.26-1.26-.36-.54-.18-1.44-.72-1.8-4.68-2.34-9.9-2.16-15.12-2.52-.72-.18-.9.36-1.08.54-1.08.36-2.34.36-3.6.72l-1.44.54c-1.44.54-2.34.9-2.88,1.44-.9.72-1.62,1.26-2.52,1.62-.18.18-.72,0-1.08.36l-.54.9c-.72.36-1.44,1.08-2.34.72-.18.72-.36,1.26-.9,1.44-2.7,1.26-4.68,3.06-7.2,4.5-.36,1.08-1.44,1.98-2.52,2.88-1.26.9-2.34,1.98-3.96,1.98-.9-.18-1.44-.72-2.52-1.08-.18-1.44-1.44-2.52-1.62-4.32-.18-1.08.18-2.16.36-3.42,0-2.34-.18-4.5-.54-6.48-1.62-.18-3.96,0-5.22-.36-.9-.36-1.98,0-3.06.54-.54.9.18,1.8.18,2.88,0,.54-.36,1.26-.36,1.98,0,1.08.54,2.16.72,3.24.36,2.34,0,5.04.18,7.56,0,1.08.54,2.16.54,3.24s-.54,2.34-.72,3.42c-.18,1.26.36,2.34-.36,3.24.9,1.62,0,3.78.54,4.86.18.36,1.44,6.66.36,7.38.18,1.08,0,1.8,0,2.52,0,.9.54,1.44.54,2.34,0,1.08-.36,2.34-.36,3.42-.18,2.88-.18,5.22-.18,7.02,0,1.08.36,2.34-.36,3.24,1.62,2.88,1.44,8.46,1.26,11.88-.18.9.18,1.62.18,2.34,0,.54-.54,1.26-.72,1.8-.54,3.06.54,6.48-.72,8.28.72,1.98.36,5.04,1.26,6.84,1.98.36,5.76,0,8.46-.54.54-2.16-.72-3.78-.9-6.12-.18-.54.18-.72.18-1.08.18-.54-.18-.9-.18-1.44v-3.42c0-3.42-.18-7.2.9-9-.9-1.62-.36-3.42-.18-5.58v-3.78c.18-.9.72-1.8.9-2.52l.36-2.88c.54-2.7.9-6.12,1.62-8.46l.72-.54c.36-1.44.18-1.98.54-2.88.54-1.44,1.08-3.24,1.8-4.14.18-.18.9.18.72-.54-.18-1.08.36-1.26.36-2.34.9-.54.9-1.98,1.44-3.06l1.8-4.14c.54-.9,1.08-1.44,1.62-2.16.54-1.08,1.26-1.98,2.34-2.52.18-1.62,1.08-2.34,1.8-3.24,1.98-3.6,4.86-6.48,8.1-9.18,1.62,0,3.06-1.44,4.86-2.16.72-.18,1.26,0,2.16-.18,0,0,.36-.54.54-.54,1.08-.54,2.34-.36,3.42-.54.9-.18,1.44-.54,2.16-.54.36,0,.72.18,1.44.36.72,0,1.26-.36,1.62-.36.54.18.72.54.9.54.54.36,1.08.18,1.44.36,1.8.72,2.52,1.44,3.42,2.16.54.36.9.72,1.44.9.36.54.9.9.9,1.8,1.8.9,3.42,2.34,4.32,4.14.18.36,0,1.08.18,1.8.18.36.72.72.9,1.08.18.54,0,1.26.18,1.8.18.54.72.9.9,1.44.18.9.18,1.98.54,2.88.18.9.72,1.62,1.08,2.34.54,1.44,1.08,2.88,1.26,3.78.18.72-.18,1.44,0,2.16,0,.36.36.72.54,1.08l.36,1.8c.36,1.26,1.26,3.06,1.26,4.14-.18,1.08.18,1.62.18,2.34.18,2.52,0,4.68.18,5.76.9,2.7,1.08,5.22.18,7.56,1.26,3.42.36,7.38.9,10.8.18.72.54,1.08.54,1.62,0,.72-.36,1.08-.36,1.8,0,.54.36,1.26.36,1.8,0,.36-.36.72-.36,1.08,0,.54.54.9.54,1.44,0,.9-.36,1.98-.36,2.88v3.24c-.18.9-.72,2.34-.72,2.7.36,2.16-.72,5.4-.36,7.2,1.62,1.26,5.4.9,8.28,1.08.54-2.16-.9-2.52-1.08-4.14,1.44,0,.18-1.08.36-1.8.54-.54,1.26-.9,1.44-1.62.36-2.7,0-3.96.72-6.12-.72-1.44,0-3.42-.18-4.86Z"/>
      <path d="M724.86,142.7c.18,1.62.72,2.34,0,3.78-.54.9-2.34,1.26-2.7,1.98-1.44-.54-3.24-.18-4.32.18-1.62-1.26-5.4-.36-7.02-1.62-.72.36-1.44.54-1.98.54-3.24.36-7.02-.54-10.8-1.08-2.52-.18-5.58-.18-7.74-.18-.9.18-1.8.36-2.7.36-1.8-.18-3.42-1.26-5.22-1.26-1.26-.18-2.88.36-4.32.36-.9,0-1.98-.18-2.88-.36-.36,0-.9.36-1.26.36-.54-.18-.9-.36-1.44-.36-1.62,0-3.24.72-4.5-.72-.9.72-1.44.9-3.06.9-1.08-.18-1.8-.36-2.16-.36s-.9.54-.9.54c-.72,0-1.8-.72-2.7.18-.36-.54-1.8,0-2.34-.54-.72-.36-.54.54-1.08.54-1.98-.9-3.6-.18-5.58-.18-1.8,0-3.6-.72-6.12-.36-.9,2.16-.54,5.76.72,7.74.18,1.26-.36,1.8-.36,2.7.18.36.72.36.9.54.18.18,0,.72.18.9.9,1.08,2.16,1.98,2.88,3.24,1.08,1.8,3.06,3.24,4.32,5.4.54,1.08,1.44,1.8,2.16,2.88,1.8.36,3.06,1.44,4.68,2.52l1.08.54c1.44.9,2.16,1.98,3.78,2.7,1.08.36,1.8.18,2.34.36,1.08.36,2.7,2.16,4.32,2.34.18,0,.9-.18,1.62-.18,1.08,0,1.8.18,2.7.36,1.8.18,3.24-.36,4.32-1.08,1.08,0,1.62,0,2.7-.18,0-.18.18-.54.18-.72.18,0,.54.18.72,0,.18,0,.36-.54.54-.54.72-.18,1.62.36,2.34-.18.72-.72,1.44-.72,1.8-.9,1.26-.54,2.16-1.26,3.42-2.16l2.34-1.44c2.34-1.44,3.78-4.5,5.94-6.48.18-2.7,1.08-4.5,2.16-6.12,0-2.34.72-3.78,1.62-5.22.9-.18,1.8-.72,3.24-.18l2.34,1.26c.72.36,1.44.36,2.88.9.36.18.72.54,1.08.54.54.18,1.08,0,1.8.18.36,0,.72.54,1.08.54.9.18,2.52-.36,3.42,0,.18.18.36.54.72.72.54.18,1.26.72,1.62,1.44,0,1.62-.54,2.88-1.26,3.96-.18.54-.36,1.62-1.08,1.44-.18.9.36,1.08.18,2.16-.18.72-.72,1.08-.9,1.98-.54,1.44-.54,2.7-1.26,3.96l-1.26,1.44c-.72.9-1.62,1.98-2.7,2.34.54,1.08-1.08,1.62-1.44,2.16-.54,1.44-1.98,2.34-3.6,3.42-1.8,1.62-4.14,2.7-5.76,3.96l-1.62,1.08c-.9.9-1.44,1.44-2.88,1.98-.54.36-.72.18-1.26.36,0,0-.36.54-.54.54-1.26.54-2.7.36-4.14.72,0,.18-.72.54-.72.54l-5.4,1.08c-1.08.36-1.8.72-3.78.54-.54,0-1.26-.36-1.62-.36-.54,0-1.62,1.26-2.7.36-.9-.36-.36,1.08-1.44.72-1.26-.36-2.7.36-4.14.18-.72,0-1.44-.36-2.16-.54-.72-.18-.9.36-1.26.18-.18,0-.54-.54-.54-.54-2.52-.36-5.04-.36-7.2-1.08-.72-.18-1.62,0-1.98-.9-2.16.36-4.32-.9-5.58-2.16-.72,0-1.26-.36-1.98-.54-1.44-.72-3.42-1.26-4.32-3.06-1.8,0-2.52-1.26-3.42-2.16-1.98,0-3.6-1.26-4.5-2.7-1.08-1.26-1.8-1.98-2.7-2.7-.36-.36,0-1.26-.54-1.62-1.98-.9-2.88-2.88-5.04-3.6-.36-1.26-1.62-2.16-2.34-3.24-.36-.54-.54-1.26-.72-1.8l-1.26-1.44c-.54-1.62-.72-3.6-1.26-5.4-.18-.36-.54-.9-.54-1.44-.18-1.08,0-2.16-.18-3.06-.18-.72-.72-1.44-.9-2.16-.18-1.08,0-2.34-.18-3.78-.18-1.08-.54-2.16-.54-3.24,0-1.62.36-3.42.36-5.22,0-.54-.18-1.44-.18-1.98.18-1.26,1.08-2.52,1.26-3.78,0-.54-.18-1.08-.36-1.44,0-.54.54-1.26.18-1.8.54-.36.72-1.44.9-1.98.18-.72.18-1.8.54-2.88l.72-.54c.18-.36.18-.54.18-.9l.72-.54c0-.36-.18-.9,0-1.08.18-.54.54-.9.9-1.44l.54-1.8c.36-.54.72-.72.9-1.08.18-.54-.18-1.08,0-1.44s.54-.18.72-.54l.9-3.6c.36-1.08,1.08-2.7,2.34-3.42-.54-.54,0-1.08,0-1.62,1.26-1.26,2.16-3.06,2.88-5.04,2.16-1.44,3.42-3.96,5.58-5.58.36-.36,1.08-.54,1.8-.9.18-.18.18-.36.54-.54.18-.18.72-.18.9-.18,1.26-.9,1.98-1.98,3.6-2.7,1.44-.54,5.04-.18,6.3-1.8,1.44,0,2.88-.72,4.14-1.44.9-.36,1.98-1.26,4.14-1.08,1.62.18,3.06.18,4.86-.36.9-.18,2.16-.54,3.6-.54.36,0,.9.36,1.44.36,1.98,0,3.6,0,6.12.18,1.26,0,2.34-.54,3.78-.54.18,0,.36.36.72.36.54-.18,1.62-.18,2.7,0,.54,0,1.08.36,1.8.54,1.26,0,1.98.72,3.06,1.26.54.36,1.44.36,1.98.72.72.18,1.44.54,2.16.9,1.44.54,3.06.72,3.6,2.34.54.18.9,0,1.44.36,1.08.36,2.16,1.62,3.24,2.34.9.72,1.8,2.34,3.06,3.06.18.72.72,1.08.9,1.98,1.98,1.08,3.06,3.24,5.4,4.14.72,1.62,1.98,2.52,2.16,4.5l1.8,2.7c.18.54,1.08,1.26,1.26,1.98.36,1.26.9,2.34,1.8,3.6.54.72,1.62,1.8,1.98,2.88l.36,2.88.9,2.34c.36,1.8,0,3.6.18,5.58l.54,4.32c0,.72,0,1.44.18,2.34,0,.72.54,1.26.54,1.8s-.36,1.08-.36,1.62ZM717.48,134.42c.36-.72.36-1.44.36-2.34,0-.72-.54-1.8-.54-2.34.36-1.44,1.08-.72.36-1.62-.72-.72-.36-2.52-.54-2.88-.18-.9-.9-1.62-1.44-2.34-.18-.54-.18-.9-.54-1.26-.36-.54-1.26-1.26-1.44-1.44,0-.18.18-.72,0-.9-.72-.54-.54-.9-.72-1.26-.54-.72-1.08-1.62-1.44-2.52-.54-.54.36-1.08,0-2.16-1.08.36-1.08-.9-1.44-1.44l-.72-.54c-.36-.36-.36-.72-.54-1.26-2.52-.54-3.6-2.34-5.58-3.6,0-1.08-.9-1.8-1.26-2.52-.72-.9-1.08-1.8-1.8-2.34-1.44-1.44-4.14-1.8-4.86-3.96-1.8,0-2.7-1.08-4.32-.36-1.26-.72-2.52-1.08-3.78-1.62-.54-.18-.9-.54-1.44-.54-.9-.18-2.16,0-3.42-.18-1.08,0-1.98-.36-2.88-.36-1.26.18-2.52.72-3.78.54-.72,0-1.26-.36-1.98-.36l-3.06.54-6.12.72-2.88.54-.9.54-1.08.36c-1.62.54-3.06,1.26-4.68.72-1.08,1.8-3.42,1.8-5.04,2.88-.54.72-.9.54-1.08.72l-1.26.9-1.8,1.08c-.18.18-.54.18-.9.36-1.08.9-1.26,2.34-2.7,2.88,0,.72-.54,1.08-.54,1.98-.9.18-1.08,1.08-1.44,1.62-1.08,1.44-1.62,2.7-2.52,4.32-.36.72-.9,1.62-1.08,2.34-.36.9-.18,2.16-.36,3.24-.54,1.44-2.16,2.52-1.98,4.32-1.62.9-1.98,3.24-2.7,4.86-.36.54-.72.9-.9,1.62-.54,2.34,0,5.22-1.08,7.56,1.44,1.44.54,3.42.54,5.58,0,1.44.36,3.24.54,4.86,0,.9,0,1.62.18,2.34,0,.9,0,1.8.18,2.7,0,.36.54.54.54.9.18.54-.18,1.26,0,1.62l.54,1.26c.54,1.26,1.44,3.24,1.44,4.68l2.16,2.34c.72,1.08,1.26,1.62,1.8,1.98.72.72,1.26,1.08,1.62,1.8.18.36.72.18,1.26.36,1.08,1.44,1.8,1.98,2.52,2.7l.54.9c.72.72,1.44,1.26,1.98,1.44,1.08,1.08,2.34,1.44,3.06,1.8.54.9,1.08,1.62,1.8,2.16.9.54,2.16.54,3.24,1.26l1.62,1.44c.72.54,1.8.54,1.98,1.44,1.62,0,3.06,1.08,4.14,1.26.54.18,1.08,0,1.62,0,.9.36,1.44.9,2.34.9,1.08.36,2.34-.18,2.88-.18,0,0,.54.54.54.72,1.44.36,2.52-.18,3.6-.36,2.34,1.8,7.2.72,9.9.36.36-.18,1.26,0,1.08,0,.54-.18.72-.54,1.26-.54l2.88-.54c.9-.18,2.16,0,3.06-.18,1.08-.36,1.98-1.08,3.06-1.44.18-.18.54,0,.9,0,.54-.18,2.34-1.26,2.52-1.44.72-.72,1.26-.54,1.44-.72.72-.72,1.08-1.44,1.8-2.16l1.8-1.08.9-.54c1.8-1.08,3.06-2.34,4.68-3.06.54-1.62,1.98-2.16,2.16-3.96,1.98-1.08,2.88-3.06,3.42-5.76.72-.72.9-1.08.54-2.34-.54-.54-1.98-.36-2.88-.36-1.08-.54-1.62-1.26-3.24-1.26-.54,1.26-.54,2.7-.9,4.14-.18.54-.72.72-.9,1.44-.18.54,0,1.26-.36,1.98-.72.54-.72.9-.9,1.08l-1.08,1.8-1.8,2.16c-1.44,1.44-2.16,3.06-3.6,3.96-.36.36-.9.36-1.44.72-.54.18-.9.54-1.26.72l-2.88,1.44c-.36.18-.72-.18-.9,0-.18,0-.36.36-.54.54l-3.06,1.44c-.9.36-1.44,1.08-2.88.72-.9,1.08-2.34.9-3.42,1.44l-1.26.54c-.54,0-1.08-.36-1.8-.36-.54,0-1.08.54-1.62.54-3.6.54-6.66-.36-9.9-.72-2.34-3.06-8.28-2.7-9.72-6.3-1.08-.18-1.8-.72-2.7-1.26-.36-.72-.9-.54-1.08-.72-1.44-.54-1.98-1.62-3.42-1.98,0-2.16-3.24-2.52-2.16-4.5-1.08.18-1.62-.36-2.34-.54-.36-1.08-1.08-1.62-1.8-2.34-.18-1.62-1.8-1.98-1.62-3.96-2.16-.18-2.16-2.52-3.42-3.78.18-.72.9-.9.9-1.8-1.08-.9-1.98-2.34-2.16-3.96-.18-.72.36-1.44.36-2.16,0-.9-.54-1.8-.54-2.88-.18-2.52.9-4.86.36-7.02,1.62-1.62,4.14-1.26,7.56-1.26.72,0,1.08.18,1.62.18,2.52-.18,3.96,0,5.94,0,1.62.18,3.42.36,4.5.36.9,0,1.98-.36,3.06-.36.72,0,1.26.54,1.8.54.72,0,2.34-.54,2.7-.54,1.44.18,2.34-.18,3.42-.18.72,0,1.8.36,2.52.36,2.34.18,4.14-.18,5.94-.18,0,0,.54.36,1.08.36s1.08-.36,1.44-.36c.72.18,1.44.72,1.98.72,1.26,0,2.16-.54,3.24-.54,1.44,0,3.06.54,4.68.72.72,0,1.62-.36,2.34-.36,1.98.18,3.6.72,4.86,1.08,1.08,0,1.08-.9,2.16-.9,3.42,1.08,7.74.72,11.88,1.26,2.52.18,5.22.9,7.56,0,.72-1.98.18-5.04-.54-6.66ZM707.4,130.82c-.18,1.26,0,2.52-1.26,3.42-3.6.54-8.28-.9-11.88.54-1.44-.9-3.24-.72-5.58-.72-1.98.18-4.5-.36-6.66-.36-1.62,0-3.24.54-4.86-.36-1.26.54-2.52.72-4.14-.18-1.26.72-2.88,1.08-4.5,1.08-.54,0-1.08-.54-1.44-.54-.54-.18-1.8.18-3.06.18-.36,0-.9-.36-1.44-.36s-2.52.54-3.42-.36c-.54,0-.9.54-1.44.54-.72.18-1.26-.18-1.98,0-1.08.18-2.16.9-3.24,1.08-1.26.18-2.88-.18-4.68.18l-1.44.54-1.8.36c-1.26.18-2.7.54-3.24.36-1.26-.18-1.8-1.44-2.52-2.34,0-1.08-.18-2.34.36-3.24.36-.54.18-1.98.36-3.06,0-.36,1.08-.54.36-1.44l1.08-1.8c.36-2.7,1.08-4.86,2.52-6.3.36-.72.18-1.62.36-2.34,0-.18.54-.36.54-.54.18-.36,0-.9,0-1.26.18,0,.54,0,.72-.18,0-.36,0-.9.36-1.44s1.26-1.08,1.62-1.8c.72-.54,1.08-1.26,1.62-1.98l.9-.72,1.98-2.88c2.16-.54,3.6-1.44,5.94-1.62.72,0,1.08-.9,1.8-1.08.18-.18.9,0,1.62-.36.9-.36,2.7-.9,4.14-1.08.9,0,1.8.36,2.88.36.72,0,1.44-.18,1.98-.18,1.44,0,2.7,1.08,3.78.36l1.8.9,1.44.9c1.44.36,2.88,0,4.32.36l1.44.54c.54.36,1.44.36,1.8.36.9.54,1.8,1.44,2.88,1.8,1.08.54,2.16.72,3.42,1.08,2.7,2.52,5.76,4.86,8.46,7.38,1.08.9,2.16,1.8,3.24,3.06,0,.54.36.36.54.54.36.36.54,1.08,1.08,1.08,0,1.44,1.08,2.52,1.62,3.96.36.36.18.72.36,1.08.18.54,1.08,1.8,1.44,2.7.18,1.08,0,2.52-.18,3.78ZM699.12,124.7c-.54-.36,0-.9-.18-1.44-.18-.18-1.62-.18-.9-1.08-.72-.72-2.16-.9-1.98-2.34-1.08.18-1.44-1.08-1.8-1.26l-.72-.36c-.9-.72-1.08-1.98-1.98-2.7-.72-.36-1.8.54-1.8-.9-3.6.18-5.4-1.62-7.2-3.6-1.98.54-4.86,0-7.2.18-1.62-1.08-3.06-.54-5.22-1.08-.9-.18-.54-1.44-1.8-1.44-1.62.72-3.06-.54-4.86-.72-1.98,1.26-4.14,1.26-6.12,1.98-1.08.36-2.88,2.7-3.6,3.42l-4.68,5.58c.18,1.44-.54,1.98-.36,3.24-1.62,1.26-1.98,3.96-2.52,6.3,1.62.18,3.96-.18,6.12-.36.72-.18,1.62-.18,2.34-.18.54-.18.9-.54,1.44-.54,2.16-.18,4.5.18,6.66,0,2.34,0,4.5-.72,6.48.18,2.52-1.08,6.48-.54,8.64-.36.36,0,.36-.36.9-.36.36.18.36.36.9.36.54-.18.72.54,1.44.36,5.4-.9,12.24.54,18.9-.54.36-.36,0-1.98-.9-2.34Z"/>
      <path d="M824.04,178.51c0,1.08.36,1.98.18,2.7-.36,1.8-1.62,3.06-2.34,3.96-1.08.18-1.44-.18-2.16-.36-1.08.36-1.44,1.44-2.52,1.8-.54-.72-1.08,0-1.44,0-1.62-.18-2.88-1.08-4.32-1.26-.54-.18-1.08.18-1.8.18-.54,0-1.08-.36-1.44-.36-.72.18-1.08.54-1.8.54-1.98,0-3.78-.36-5.76-.9-1.44.18-3.42,1.44-6.12.72-.18-.18-.54-.72-.54-.72-.72,0-1.44.36-1.98.36h-2.16l-1.98-.72c-.54-.18-1.26,0-1.98,0l-1.98-.72c-.9,0-1.8.36-2.34.36-1.26,0-2.52-.72-3.6-.72-1.26,0-3.06.9-4.32-.36-1.98.9-6.66,1.44-8.64.36-1.44.54-2.52,1.44-4.68,1.08-.36-.36-3.6-.18-4.14.18-.36.18-1.44.36-2.34.54l-4.68,1.08c-.9.18-2.7,1.08-4.68.72-.36-.72-1.26-.9-1.26-1.98-1.26-.36-1.08-1.44-.9-2.34.18-1.08,1.26-1.8,2.34-2.7.36-.18.72-.72,1.26-1.08.36-.36,1.08-.54,1.44-.9.72-.72,1.26-1.8,2.16-2.7,1.08-1.26,2.16-1.98,3.24-3.42,0-.18.18-.54.18-.72.18,0,.54,0,.72-.18l1.08-1.98c.72-.9,1.8-1.62,2.7-2.34l.9-.54c.18-.18.18-.54.36-.9.18-.36,1.08-.72,1.44-1.44l.9-1.08.54-1.08c.18-.18.72-.18.9-.36.54-.36.9-1.26,1.62-1.98l1.08-1.08c1.08-1.26,2.16-2.34,3.24-3.78.36-.18.18-.54.36-.9.36-.36,1.26-.9,2.16-1.26-.54-2.52,1.44-2.34,1.8-4.14.72-.18,1.08-.72,1.98-.72.18-4.32,4.32-4.5,5.22-8.1,1.62-.72,1.98-2.7,3.78-3.06-.72-.9.72-1.26.9-1.8.18-.72.54-.54.9-1.08.18-.36,0-.9.36-1.26.36-.36.9-.54,1.44-1.08.36-.36.36-1.44,1.26-1.08-.18-.54,0-.9.54-.9.36-.36.36-1.08.36-1.8,1.44-.9,1.98-2.88,3.24-4.5.72-.9,1.08-1.62,1.8-2.88.36-.72,1.08-1.44,1.44-2.34l.36-1.44c.9-1.62,1.98-3.24,2.16-5.04l1.8-1.98c0-2.16.54-3.6,1.62-4.68.18-.9-.36-1.26-.36-1.98l.72-1.44v-3.24c.18-1.44.72-2.52.72-3.78,0-.72-.36-1.62-.54-2.7-.36-1.62-.18-2.7-.72-3.96l-.72-.72c-.18-.9-.54-2.88-1.08-3.78-.18-.36-.9-1.08-1.26-1.44-.72-.54-1.08-1.08-1.8-1.26-.18-.9-.9-1.26-1.08-2.34-2.7-.54-4.68-1.62-6.66-3.06-1.08.54-1.98-.18-3.24-.36-1.8-.18-3.96,0-5.94,0-.72-.18-1.44-.36-1.8-.36-1.08.18-2.34.9-3.6,1.62-1.26.72-3.78,1.62-5.22,2.52-.36.18-.54.54-.9.9-.36.18-.9.18-1.08.54-1.8,1.08-3.42,3.24-5.4,4.14-.72,1.98-2.52,2.7-3.24,4.32-.18.18-.18.9-.36,1.44-.54,1.26-1.08,3.06-1.62,4.86,0,.36-.36.36-.18.72-.36,2.52-.72,5.58,0,8.28.18.9.72,1.26,1.08,2.16.54.54.72,1.44,1.26,1.98l1.8,3.06c.36.36.54.18.72.9,0,1.08-.9,2.16-1.62,3.06-1.98.36-3.6.36-6.12.54,0,0-.36.36-.9.18-1.98-.18-3.42.54-4.86.54-1.26-.18-1.98-.9-3.24-1.08-1.44-.18-1.26,1.44-2.7,1.44h-3.6c-.36-.9-.9-1.44-1.26-2.34.36-1.44-1.08-1.08-1.08-2.16s.18-1.8.72-2.34c-.18-.36-.9-.18-.54-1.08.36-1.26.18-3.06.36-4.68,0-.9.9-1.26,1.44-1.62,0-.9-.36-1.44-.54-2.16-.18-.54.54-.36.54-.72.18-.36-.36-.72-.18-1.26l.54-1.98c.36-.54.9-1.08.9-1.8.36-.9.36-2.16.36-3.42.36-1.98.54-3.96,1.98-5.58v-2.52c.9-1.26,1.8-2.7,1.8-4.86,1.44-1.26,2.16-3.24,2.88-5.22.72-.36,1.26-.9,1.62-1.44.54-.36.72-1.26,1.62-1.44-.18-.36,0-.9.18-1.44.54-.9,1.44-1.8,2.52-2.52.18-.18.54-.72.9-.9.36-.18.72,0,1.08-.18.36-.36,1.08-.9,1.44-1.44.36-.36.18-.9.36-1.08.54-.9,2.7-2.16,3.78-2.88l1.8-1.08c.9-.54,1.62-.72,2.34-1.44.18-.18,1.08-.36,1.26-.54,0-.18-.18-.72,0-.9.36-.72,1.8-1.08,2.16-2.34,1.08.18,2.34-1.08,3.42-.18l2.7-1.08c.72-.18,1.8-.18,3.06-.18,1.62-.18,3.06-.72,4.68-.72,1.8-.18,3.42.54,5.04,0,.36.54,1.08.54,1.44.9.72-.18,1.44-.72,2.34-.72.9-.18,2.52.54,3.96.9,2.7.54,4.14.54,6.12,1.62.54.36,1.26.54,1.62.9.36.18.36.72.72.9.54.36,1.8.72,2.16,1.44h2.16c.72,1.08,1.98,1.26,3.06,1.8,1.26.9,3.24,1.98,4.5,3.06.72,1.62,1.8,3.06,2.52,4.5.54.72.72,1.62,1.26,2.34.36.54,1.62.9,1.08,1.98,1.44.54,1.62,1.26,2.16,2.7.18.18.54.54.72.54.36,1.62-.18,4.14,1.62,4.68.18,1.62.9,3.06,1.08,4.68,0,.9-.36,1.8-.36,2.7-.18.54.18,1.08.18,1.62,0,.72-.54,1.26-.54,1.8,0,.72.72.72.54,1.44-1.08,1.26-.36,3.96-.72,6.3-.18.72-.54,1.26-.72,1.8-.36,1.44-.18,3.06-.36,4.32l-.54,1.44c-.36.9,0,.9-.18,1.26-.18.72-.54,1.8-.9,2.52-.36,1.26-1.08,2.52-1.44,3.78-.18.54-.18,1.26-.36,1.44-.36.72-1.26,1.26-1.8,1.98-.54.72-.72,1.62-1.26,2.34-.18.36-.54.36-.9.72l-.54,1.26-1.8,2.88c-.18.36-.18,1.26-.54,1.98l-1.26,1.62c-.9.72-.9,1.26-1.26,1.8l-1.08,1.8c-.36.36-.72,1.08-1.08,1.62-1.44,2.34-2.7,5.04-4.5,6.66,0,1.62-1.26,2.7-1.98,3.96-.36.36-.18,1.26-.9.9,0,1.8-1.44,2.16-1.62,3.96-.9.36-1.44,1.26-1.98,1.98l-1.8,1.98-.9,1.26c-.54.54-1.26,1.08-1.8,1.98-.36.54-.72,1.08-1.26,1.62-.54.9-1.08,1.26-1.08,1.44-.54.72-.72,1.8-1.26,2.52-1.08,1.62-2.34,2.88-3.06,4.68,1.62,0,3.78.18,5.76-.18.54,0,.72-.36,1.26-.54l1.44-.36c1.62-.36,3.06-.54,5.58-.9,1.44-.18,2.7-.72,4.86-.54h.9c.36.72.9.36,1.08.36.36,0,.72.36.72.36.9,0,2.16-.36,3.42-.54,1.26-.18,2.7,0,3.78-.18s2.16-.72,3.78-.9c1.44,0,2.7-.36,4.14.18-.18.54.18.9.72.9,0,2.7,1.8,5.22,1.08,7.74.18.9.72,1.8.72,3.06.18,1.44-.9,3.96-.9,5.94ZM817.92,87.62c.36-2.52,0-5.58-.54-6.66l-.54-1.62c-.54-1.26-1.62-2.52-1.26-4.32-.9-.36-.9-1.62-1.08-1.98-.18-.18-.54-.36-.72-.36-.9-1.44-1.62-3.06-2.7-4.5v-1.44c-1.8-.36-2.34-1.8-3.42-2.88-2.88,0-3.96-1.62-6.66-1.98,0-.9-.72-.72-1.44-1.08l-1.62-1.26c-1.08-.54-2.52-1.62-3.78-1.8-.54-.18-.9.18-1.44.18s-1.08-.36-1.44-.36c-.72.18-1.26.36-1.98.36-3.24-.36-7.02-1.44-9.9-.9l-.9.72c-.54.18-1.08,0-1.44.18-.72.36-1.08,1.08-2.16,1.08-.9.18-1.62-.18-2.52,0-1.26.18-3.78,1.62-4.5,2.16-.18.18-.54.18-.9.36l-.72.72c-1.26,1.08-2.52,1.62-3.6,2.7-.72.18-1.08.72-1.98.54-.36.54-.54,1.44-1.08,1.98-2.16,1.26-4.14,3.42-5.22,5.4l-.9,1.44c-.36.36-.9.54-1.26,1.08-.18.18-.18.72-.36.9,0,.18-.36.36-.54.54-.36.9-.36,1.98-.9,2.88-.72.54-.72.9-.9,1.08-.36.54-.72.9-1.26,1.26.54,1.26-.54,2.16-.9,3.42-.54,2.34-.54,5.04-1.08,7.56-.18,1.08-1.44,2.16-.9,3.42-.54.54-.9,1.44-1.26,2.34-.18.9.18.54,0,1.08,0,.54-.54,1.08-.54,1.44-.18.72,0,1.26,0,1.98-.18.54-.72,1.08-.72,1.44-.18,1.44-.18,3.24.18,4.68,2.52.36,6.48.36,9.36-.36,0-1.62-1.08-2.7-1.44-4.32,0-.36-.18-.72-.18-.9,0-.54.36-.9.36-1.44-.36-1.62-1.44-3.06-1.44-4.68,0-1.08.72-1.8.9-2.88.36-1.44.36-2.88.72-4.32.36-1.44.54-2.7,1.62-3.78,0-1.08-.36-.9,0-1.8,1.08-1.26,2.52-2.7,3.6-3.6.72-.72.9-2.34,2.34-1.98-.18-.72.18-1.26.54-1.8.72-.9,1.98-1.44,3.06-2.16.9-.9,1.62-1.98,2.88-2.34.72-.36.9-1.44,1.8-1.62.9-.18,1.62-.72,2.34-1.26.18,0,.54.18.9.18,0-.18.18-.54.18-.72l1.26-.54c.36-.18.9,0,1.44-.18,1.08-1.26,1.98-.9,2.7-1.08.54-.18,1.26-.54,1.62-.54,0,0,.9.36,1.26.18,2.88-.18,6.84,0,8.64.18,2.52.36,3.78.72,4.68,1.62.18.18.54.18.9.36.9.54,1.98.9,2.52,1.8,1.98-.36,2.16.9,3.78.9.54.72.72,1.62,1.08,2.34,2.88,2.16,4.68,5.04,6.84,7.74.18,3.06,1.8,5.58,2.16,9,0,1.8-.18,5.22-.18,6.12,0,.36.36.36.18.9,0,.9-.54,1.8-.54,2.52-.18.54.18.72.18,1.26,0,1.26-.54,1.98-.9,2.88-.54,1.8-.72,2.52-1.26,3.78l-.54,1.98c-.72,1.26-1.62,1.98-2.16,3.06-.54,1.44-.72,3.06-1.26,4.5-.72,0-.54.54-.54.72l-.72.9c-.54,1.44-1.26,2.52-1.8,3.78-.72,1.44-1.26,2.52-2.16,3.78-.36.54-.54,1.26-1.44,1.26-.18,1.62-1.26,2.7-1.8,3.6-.36.36-.36.72-.54,1.08-.36.36-.72.54-.9.9-.18.18-.36.72-.72,1.08l-.72.9c-.36.36-.36,1.08-.72,1.44l-1.8,1.62c-.54.72-.9,1.44-1.44,1.98-.54.72-1.26,1.08-1.8,1.8l-.54,1.08-.72.36c-.18.18,0,.54-.18.72-1.08,1.44-2.34,2.52-3.42,3.78l-.54,1.08c-.54.9-1.62,1.8-1.98,2.34-.18.72-.54.54-.72.54-.18.18.18.72,0,.9-1.26,1.08-1.62,1.62-1.98,2.34-.36.36-.9.36-1.26.72-.36.36-.36.9-.54,1.26-1.08,1.08-1.98,1.8-2.52,3.06-1.62.9-2.7,2.34-3.78,3.78-.9,1.08-2.16,2.7-3.06,3.42-.54,0-.36.36-.54.54l-.9.9-2.7,3.06c-.18.36-.54.54-.9.9s-.18.9-.54,1.44c-.54.72-1.62,1.26-1.62,2.34,2.7.54,4.5-.72,6.48,0,1.08-.72,2.52-.72,3.78-.72,2.88-.18,6.48,0,8.46-.18,4.5-.18,8.46.72,11.34,1.26,5.76.9,10.98.72,14.94.9.9,0,2.16.18,3.06.36.36,0,.9-.36,1.44-.36,1.26,0,2.7.18,3.96.72,1.26-.72,2.34,0,3.6-.9.36.54,1.44.36,2.16.36.18-3.06.36-4.68,0-8.1.18-.9.9-1.44.9-2.52-1.62-1.26-5.22-.54-6.66.18-3.24-.9-5.94-.18-9.36-.9-1.44,1.26-3.42.9-5.58,1.44-1.08.18-2.34.72-3.42.72-.9,0-1.8-.18-2.52,0-.9.18-1.8.72-2.7,1.08l-1.98.54c-.18,0-.54.54-.72.54-1.98.72-3.78,1.44-5.58,1.98-.36.36-.18,1.44-1.08,1.26-1.44.18-2.16-.36-3.24-.54,0-1.62-1.62-1.62-1.62-3.24.18-1.26,1.08-1.8,1.26-3.24.36-.54,1.8-.18,1.62-1.44.72-.18.72-1.08.72-1.98,1.8-.9,1.98-3.42,3.6-4.5-.18-2.16,1.62-1.98,1.44-4.14,1.26-.9,1.98-2.16,2.7-3.6,1.44-.18,1.62-1.44,2.52-2.34,1.08-.36,1.26.18,1.98-.54-.54-.9,0-1.26,0-2.52,1.08-1.26,2.7-1.62,3.6-2.88.54-.72.54-1.8.9-2.52.18-.36.72-.54.9-.9-.18-1.62.9-1.98,1.26-2.52.36-.72.18-1.62.54-2.16.18,0,.54,0,.72-.18.18-.36,0-.72.18-.9.36-.36.9-.9,1.44-.9.18-1.08.9-1.98,1.26-2.88.54-1.08.9-1.98,1.62-2.88.36-.54,1.08-.72,1.44-1.44.54-.72.72-1.62,1.26-2.52l1.98-3.42c.36-.54.72-.72.9-1.08l.9-1.26c.9-1.26,1.44-2.7,2.16-3.96.54-.9,1.08-1.62,1.8-2.34.18-.54.36-1.44.72-1.98l1.08-1.08c.54-1.98,1.44-3.42,2.16-4.86,0-.72-.36-1.08-.18-2.16,1.26-3.06,1.62-8.82,1.62-11.16v-2.16l.72-1.62Z"/>
      <path d="M949.14,124.7c0,.18-.36.36-.36.9.54,3.42-.9,8.1-1.98,11.34-.72,1.98-1.8,3.96-2.16,6.3-1.98,2.34-3.24,5.22-4.86,7.92l-.9,1.8-.9.54c-.36.54-.72,1.62-1.08,2.34-1.62,1.8-4.14,2.88-4.86,5.4-2.16.72-2.88,2.88-4.68,4.14-.54.54-1.44.54-2.16.9-1.08.72-2.52,1.8-3.78,2.88-.54.36-1.8.9-2.88,1.26-1.08.54-1.62,1.8-2.7,2.34-.36.18-.9.18-1.26.18-.54.36-1.62,1.08-2.52,1.44-.36.18-.9,0-1.26.36-.18.18-.36.72-.54.72-.36.36-.72.18-1.26.36-.36.18-1.62,1.08-3.06.72-1.08.9-2.34.9-3.6,1.44l-3.42,1.44-1.8.72c-.36.18-.9,0-1.26,0-.18,0-.36.54-.54.54l-1.98.36c-.54,0-1.44.36-1.8.54-.72,0-.72-.36-1.08-.36-.72,0-1.98.72-3.06,0-.9.36-1.8,1.08-3.24,1.26-.72.18-1.98-.18-3.06,0-.72,0-.9.36-1.8.54-1.26-.36-4.14.72-5.22.72s-2.34-.36-3.24-.72c-.9-.18-1.8-.18-1.98-1.08-1.08-.18-.72,1.08-1.98.72-.54-.72-1.26-1.26-2.34-1.44-.72-.18-1.08-.54-1.26.54-.54.54-.72-.18-1.62,0-.54.9-2.34.72-3.06,1.62-2.7-.54-4.86.36-7.56.18l-1.62-1.8c-.54-.54-1.08-1.44-1.08-1.98-.18-1.44.18-2.52.54-3.78-.18-.9-.36-1.62-.36-2.34-.18-.9.36-1.26.54-2.16,0-.36-.36-.54-.18-1.08,0-1.8.72-4.86.72-7.2,0-2.88-.18-6.3-.36-9.72-.18-.36.18-.18,0-.72-.36-1.08-.18-3.24-.18-4.68-.18-3.78,0-9.72,0-14.22,0-.72.36-.9.36-1.26-.18-.72-.54-1.44-.54-2.34s.36-1.8.36-2.88c0-2.34-.36-5.4.18-8.1-.36-.9-.9-1.62-1.26-2.7,0-.36.36-.36.36-.72,0-.9-.54-2.88-.54-4.5.36-.72.18-.72.18-.72,0-1.98.72-3.78-.54-5.4.72-2.7-.18-5.4-.18-8.1,0-1.44.18-2.52.18-3.96,0-.54.36-1.08.36-1.26s-.36-.54-.36-1.08c0-.72.36-.9.36-1.26,0-.9-.54-1.62-.54-2.52,0-1.08.54-2.52.9-3.42.54-1.26.18-3.06.18-4.68,0-.9.36-1.8.36-2.7,0-1.8-.36-3.6-.18-5.22,0-.9.54-1.8.54-2.52.18-1.26-.72-2.7.18-3.78.18-1.08-1.44-1.44-.54-2.34.18-.9.72-1.62,1.26-2.34,1.44-.18,1.8-.18,2.52.72.9-.36,1.26-1.26,2.16-1.44,1.8-.36,4.5-.54,6.3-.54,1.26,0,2.34.18,3.42.18,1.98-.18,3.78-.72,5.58-.72.9,0,1.98.18,2.88.36,1.44,0,2.7.18,4.14,0,.9-.36,1.08,0,1.08,0l3.78-.54c1.8,0,3.06.54,4.68.72l2.88.36c.9.18,1.8.72,2.7.9,2.34.54,5.58-.18,7.74,1.44.72,0,1.26-.18,1.98,0,.54.18,1.08.54,1.44.54.9.18,1.62-.36,2.34-.18.72.18,1.62.72,2.34.9,1.62.36,3.6,0,5.22.36l1.08.72,1.44.36c.9.72,1.8.54,2.34.9.18,0,.36.36.54.54,1.8,1.08,4.14,2.7,6.12,4.14.18.36.36.72.72.9.9.72,1.44.9,1.98,1.8l4.86,5.4c.72.54,1.44,1.08,1.98,1.8,2.88,2.88,4.68,6.3,6.48,9.36,0,.9.54,1.26.36,2.34,1.08,1.44,1.8,3.24,2.7,5.04l.9,1.44c.36.9.18,2.16.54,3.24.18.9.72,1.8,1.08,2.7.18.54,0,1.08.18,1.62.36,1.08,1.44,2.52,1.62,3.78.18.54,0,1.26,0,1.8.18.9.72,1.8.9,2.7.18,2.7,0,5.94,0,8.64v2.34ZM942.66,115.88c-.18-1.62.36-3.24,0-4.32-.18-.9-1.08-1.98-1.26-2.7-.18-.36,0-.9,0-.9-.54-1.62-1.26-2.52-1.62-3.78-.18-.54,0-1.08,0-1.8-.18-.72-1.08-1.26-.54-1.98-2.34-2.7-3.78-6.3-4.68-10.26-1.26-1.98-3.24-3.42-3.96-5.94-1.08-.18-1.62-1.08-2.34-1.8-2.34-1.8-4.14-4.14-5.94-6.48-1.08-.36-2.16-1.62-2.88-2.16-.72-.54-1.26-.9-1.62-1.8-1.8-.18-3.42-1.44-4.68-1.8-.9-.36-1.98-.36-2.52-.54-1.44-.72-2.88-.9-4.32-1.26l-1.8-.72c-1.98-.36-4.5-.36-6.66-.72-1.08-.18-2.16-.54-3.24-.54-1.08-.18-2.16-.72-3.06-.72s-1.8.36-2.7.18c-.36,0-.54-.54-.9-.54-.36-.18-.9,0-1.44,0-1.62-.54-3.6-1.08-5.4-1.08-.54,0-1.44.54-1.8.54-.9,0-2.16-.36-3.24-.36-.36,0-.54.54-.9.54-1.8.54-3.6-.36-5.22-.36-4.86-.18-9.72.72-14.22,1.08-.18,2.34-1.44,4.86-1.62,7.56-.18,3.78,1.08,7.56-.18,10.8,1.08,1.26.18,3.06.18,4.68-.18,3.24-.72,6.3-.54,9.18,0,.9.54,1.62.54,2.34.18,1.08.18,2.34.18,3.6.18,1.98,0,3.6,0,5.4-.18.36.18.72.18.9,0,.36-.36.36-.36.9.18,1.26.54,2.7.54,4.14.18,2.52,0,5.4.72,8.28-.36.54-.18,1.8-.72,2.16.9.9.54,2.16.54,3.06.18,1.44.18,2.88.18,4.14.18,4.68-.9,11.7-.18,15.12.54,3.06,0,5.76,0,9,0,2.16.54,4.86.36,6.66,0,.9-.54,1.62-.54,2.7,0,1.26.54,2.7.54,4.32,0,2.16-.72,4.32-.54,6.3,1.62.54,2.88-.36,3.6-.54.54,0,1.08.36,1.62.36.72,0,1.26-.18,1.8-.18,2.52-.18,5.04-.18,7.56.18,1.98.18,3.78.72,5.76.72,2.16-.18,3.96-1.08,6.12-1.44.54,0,.9.18,1.44.18,1.98-.18,3.6-.72,5.58-.54.9-.36,1.62-.9,2.7-1.08h2.52c1.44-.9,4.14-1.44,5.22-1.8,1.26-.54,2.7-.36,3.06-1.44.9.18,1.62-.54,2.52-.9,1.44-.36,2.88-.54,3.6-1.08l2.52-1.26.9-.36c.36-.18.36-.72.72-.9l3.24-1.98c.18-.18.54,0,.9-.18.18-.18.18-.72.54-.9.54-.36,1.26-.54,1.8-.72,1.44-.72,2.16-1.26,3.24-1.98,1.08-.9,1.8-1.44,2.52-2.34l1.26-1.44c.18-.18.72,0,.9-.18.18-.36.18-.72.36-.9l1.08-1.44c1.26-1.26,2.7-1.98,3.24-2.88.54-.72.72-1.44,1.26-2.34.72-.54.72-.9.9-1.08l.54-.54c.72-.9,1.26-2.34,1.62-2.88.54-.9.72-1.44,1.26-1.98.9-1.08.9-1.26,1.44-2.7l1.26-2.52c.72-1.44.9-2.88,1.44-4.32.36-.9,1.26-1.62.72-2.52,1.26-1.08,1.08-2.88,1.26-5.04.18-1.26.36-2.52.36-3.78,0-1.8-.72-4.32-.72-6.3ZM936.18,128.84c-.18.9-.54,2.16-.9,3.06l-.54,3.24c-.36.9-1.44,2.16-2.16,3.42l-1.8,3.42c-.36.54-.18.9-.36,1.26l-.54.72c-.9,1.44-1.8,2.52-2.7,4.14-.54.54-1.08,1.44-1.8,2.16-.18.36-.72.36-.9.54-.18.36-.18.72-.36.9-2.16,2.52-5.58,5.4-7.92,7.74l-3.06,1.44c-.18,0-.36.36-.54.54-.54.18-.9,0-1.26.18-.18.18-1.44,1.26-1.98,1.44-.72.36-1.8.18-2.7.54-2.7,1.62-6.3,2.16-9.54,3.24-1.08.36-1.98.9-2.88,1.08-.72.18-1.26-.18-1.8,0l-3.24,1.08c-.54.18-.72,0-1.26.18-.54.36-1.8,1.26-3.06,1.26-.18.36-.9.54-1.26.72-1.26.54-2.88.54-5.22.72-.54.18-.72.54-1.26.72-.36,0-.9-.18-1.44-.18-.72.18-1.44.72-2.34.9-3.6.54-7.56-.18-11.88,0-1.08-.9-1.62-2.52-1.98-4.14-.18-1.26-1.8-1.44-2.16-2.7.54-3.78-1.08-9.18.9-12.06-.72-1.26.18-2.34.36-3.6,0-.36-.36-.9-.36-1.62,0-.54.36-.54.36-.9-.18-1.62.18-2.7.36-3.78,0-.54.36-1.08.36-1.8,0-.54-.36-1.08-.36-1.62l.72-3.24c0-.54.18-.9.36-1.44.36-1.62,0-4.14.36-5.76.18-1.08,0-4.32.36-5.22.36-.72,0-2.16.18-3.6,0-1.8.36-2.52-.18-3.96-.18-.54-.72-.9-.9-1.44-.18-.54-.36-2.52-.18-3.06.18-1.08-.18-1.08-.36-1.44,0-.36.18-.72,0-1.08-.36-1.8-.36-3.6,0-6.12,0-1.26.36-2.7.36-4.14,0-.9-.54-1.8-.54-2.88-.18-.9.54-1.98-.18-2.88,1.08-2.16.18-6.3,1.62-8.1-.72-1.8-.36-3.78.36-5.4.36-.9-.54-1.26-.54-1.8,0-.72.36-1.08.36-1.8-.18-1.26-.9-2.52-.9-4.14.72,0,.36-1.26,1.26-1.08.9-1.44,3.6,0,5.76.18,2.52.18,5.4-.9,7.02.36,1.08,0,1.26-.72,2.34-.72,2.34.9,5.22,0,8.1.18,1.26,0,2.52.36,3.78.54,1.26.36,2.52.54,3.78.72,1.98.18,3.78-.18,5.58.18.9.18,1.62.72,2.52.9,2.34.54,4.86,0,6.3,1.62,3.24.54,5.94,2.34,8.64,3.96.72.36,1.44.72,1.98,1.26,1.26.72,2.16,1.62,3.42,2.7,1.98,1.44,3.42,3.06,5.22,5.22,1.08,1.44,2.52,2.7,3.42,4.14.18.36.18,1.08.54,1.44l.72.9c.54.9.72,1.8,1.08,2.7.18.36.72.72.9,1.08l.36,1.62c.18.72.9,1.8-.18,2.52.72.72,1.8,1.44,1.98,2.7.72,1.44,1.44,3.24,1.62,4.86l.36,3.06c.18,1.8.36,2.88.36,4.86.18,2.34.18,6.48-.54,9.36ZM930.42,115.88c-.18-.36-.18-.72-.18-1.26-.18-.18-.54-.54-.54-.72-.18-.54,0-1.08,0-1.44l-.54-2.34c-.18-.72-.72-2.52-.9-2.7l-1.08-1.8c-1.08-1.26-1.26-3.42-1.98-5.04l-.72-1.44c-.36-.54-.54-1.08-.54-1.62-.9-1.08-2.34-1.44-2.34-3.24-1.26-.54-2.16-1.8-2.88-2.52l-.54-1.08c-.18-.18-.72-.36-1.08-.72-.36-.18-.54-.54-.9-.9-.72-.54-1.44-.72-1.62-1.62-2.7-.72-3.78-2.7-6.3-3.42-.72-.72-.72-1.98-1.98-2.16-1.26-.18-2.52.18-3.78,0-1.08-.18-1.8-1.08-2.7-1.26-.72-.18-1.44.36-2.34.36-.9-.18-1.8-.9-2.52-1.08-2.34-.18-4.86.18-7.2,0-1.98-.36-3.78-.9-5.58-1.08-.54,0-.9.18-1.44.18-.54.18-1.08-.18-1.44-.18-.54,0-.9.18-1.44.18-1.8-.18-2.7,0-4.14,0-.9,0-1.8-.54-2.52-.36-.54,0-1.44.54-1.44.54-.36,0-.36-.36-.72-.36l-2.52.54c-1.26,4.5-.18,8.82-.9,13.32-.18.54-.54,1.08-.54,1.8-.18.72.18,1.98.18,3.06s-.36,2.34-.36,3.24c0,.72.36,1.8.54,2.7,0,1.98-.36,4.14-.18,6.12.18,1.44.72,3.06,1.08,4.5.36,1.8.54,3.6.72,5.4.18,3.06-.54,5.76-.54,7.74,0,1.08.36,1.8.36,2.7l-.72,2.88-.36,3.42c-.54,4.68-.18,11.34-1.8,14.58,1.26,2.16,0,4.68-.18,7.2,0,1.08.36,2.16.36,3.24-.18.9-.72,1.62-.72,2.52,0,1.08.54,1.8.54,2.88,1.26.18,2.88,0,3.78.18h.9c1.44.18,2.7.72,3.96.72.54-.18,1.08-.54,1.8-.54,1.62-.54,2.7-.54,3.78-.9,1.44-.36,2.34-.54,3.24-1.08l.9-.9c.36-.18.9,0,1.44-.18.36-.18.72-.54,1.08-.54,2.52-.72,5.58-.9,7.38-1.62,1.8-.72,3.42-1.98,5.76-1.62,1.26-1.44,3.06-1.08,4.68-1.62,1.26-.36,3.06-1.62,3.96-1.98.9-.36,1.8-.72,2.88-.72,2.52-3.24,6.66-4.68,8.64-8.64,1.08.18,1.08-.72,1.98-.72,2.52-4.68,6.3-7.92,7.56-13.86l1.8-1.98c-.36-2.52.9-4.68,1.08-6.84,0-1.44-.36-2.16-.18-3.06,0-.72.54-1.26.54-1.98,0-.9-.36-2.52-.54-2.88Z"/>
    </g>
  </g>
</svg>